<svg xmlns="http://www.w3.org/2000/svg" width="2000" height="1500" style="shape-rendering:geometricPrecision;text-rendering:geometricPrecision;image-rendering:optimizeQuality;fill-rule:evenodd;clip-rule:evenodd"><path style="opacity:1" d="M-.5-.5h2000v1500H-.5V-.5z"/><path style="opacity:1" fill="#fdfdfd" d="M989.5 308.5c11.01-.167 22.01 0 33 .5 19.66 4.615 39.66 6.949 60 7 7.05 2.756 14.38 4.09 22 4a113.56 113.56 0 0 0 26 6c6.29 4.324 13.29 6.324 21 6a90.873 90.873 0 0 0 17 8c9.58.411 17.91 3.744 25 10 7.99 3.325 15.33 7.659 22 13 8.97 2.963 16.97 7.63 24 14 4.02 2.034 8.02 4.034 12 6 9.48 7.31 18.81 14.81 28 22.5a18.222 18.222 0 0 0 4 6 139.703 139.703 0 0 1 29 23.5c3.33 1.667 6.67 3.333 10 5l19.5 19.5a692.07 692.07 0 0 0 18 38 259.287 259.287 0 0 1 26 46 599.705 599.705 0 0 1 27 78c1.67 2.333 3.33 4.667 5 7 .33 6.333.67 12.667 1 19a326.458 326.458 0 0 1 6 46l3 6a148.43 148.43 0 0 1 13 16c.5 4.014.33 8.014-.5 12-.21 2.729.63 5.062 2.5 7 .67 1.667.67 3.333 0 5l-12 12a568.451 568.451 0 0 1-6 23c-.31 7.368-.98 14.701-2 22-3.11 8.78-4.78 17.78-5 27a95.693 95.693 0 0 1 14.5 14 11.658 11.658 0 0 1-5 3c-4.72-2.684-9.72-4.351-15-5a205.709 205.709 0 0 1-13.5 42 4261.332 4261.332 0 0 1-38 79c-2.33 3.333-4.67 6.667-7 10a457.842 457.842 0 0 0-26 25 159.608 159.608 0 0 1-30 30l-7 10c-.55 2.86-.39 5.69.5 8.5.06 1.71-.61 3.04-2 4-4.22-.92-8.56-1.59-13-2-5.58 4.96-11.91 8.62-19 11a319.938 319.938 0 0 1-43 30c-.48 2.9-1.48 5.57-3 8-3.52.5-7.02.33-10.5-.5-11.49 2.16-21.99 6.66-31.5 13.5-8.68 3.01-17.34 6.01-26 9l-18 12c-1.87 5.1-5.54 7.44-11 7a17.797 17.797 0 0 0-5.5 4.5c-.74 4.98-.24 9.81 1.5 14.5-.39 5.06-3.06 7.06-8 6-4.56-4.28-7.73-9.45-9.5-15.5-2.82-3.57-6.48-5.57-11-6-4.58.87-8.74 2.71-12.5 5.5-4.04.17-8.04.67-12 1.5-1.5 3.33-1 6.33 1.5 9 2.02 15.73-3.48 19.39-16.5 11-1.04-3.3-2.38-6.47-4-9.5-4.17.04-8.17 1.04-12 3-2.33.67-4.67.67-7 0a71.656 71.656 0 0 0-5-8c-6.85-2.2-13.85-3.87-21-5a47.14 47.14 0 0 1-12-5c-10.647-1.81-21.314-1.81-32 0-3.804 2.3-7.47 4.8-11 7.5-2.667-2-4-4.67-4-8-3.104 1.36-6.104 1.2-9-.5a89.802 89.802 0 0 1-12-13c-4.69-.5-9.357-1.17-14-2-2.184-2.37-4.851-3.03-8-2a66.582 66.582 0 0 1 7 12 3.947 3.947 0 0 1-1 2c-2.926.22-5.76.72-8.5 1.5l-1 11c-2.914 1.25-4.747 3.41-5.5 6.5 4.591 4.8 10.258 7.8 17 9 2.597 3.09 3.431 6.59 2.5 10.5-5.256 7.26-11.756 13.09-19.5 17.5-4.617 1.3-8.45.13-11.5-3.5-1.229-8.58-.395-16.91 2.5-25a3.595 3.595 0 0 0-1-1.5 46.1 46.1 0 0 1-12-2c-1.304-.8-1.971-1.97-2-3.5 1.591-3.54 2.091-7.21 1.5-11-4.283-1.23-8.45-2.73-12.5-4.5 1.851-.84 3.684-1.67 5.5-2.5.242-6.51-2.425-11.51-8-15-.946-6.23-3.279-11.89-7-17-2.469-2.15-5.302-3.65-8.5-4.5a108.497 108.497 0 0 1-18-4c-7.833-4.42-15.5-9.08-23-14a1011.493 1011.493 0 0 1-40-35 155.844 155.844 0 0 0-21-21c-2.53-1.42-5.197-1.75-8-1a60.043 60.043 0 0 0-14.5 7.5c-.232-3.24-1.732-5.74-4.5-7.5-12.378-.38-24.711.29-37 2-2.922.42-5.589 1.42-8 3 2.11 2.53 2.61 5.03 1.5 7.5-5.716.1-10.882 1.77-15.5 5-3.819-1.45-7.485-1.12-11 1 1.984-4.45 5.651-7.61 11-9.5-.641-2.13-1.974-3.63-4-4.5a63.996 63.996 0 0 0-7 6.5c-1.612.72-3.112.55-4.5-.5-.484-2.41-.15-4.75 1-7a27.033 27.033 0 0 0 5.5-6.5 205.866 205.866 0 0 0-17.5-16.5 31.352 31.352 0 0 1-5-8 683.36 683.36 0 0 0-18.5-16.5c-1.333-.667-2.667-.667-4 0a35.145 35.145 0 0 1-10 5c-2.419 5.044-6.419 7.21-12 6.5-.027-5.973 2.973-8.973 9-9l11-12c-3.948-5.718-6.615-11.884-8-18.5-2.896-.06-5.563.773-8 2.5-2.109-.275-3.442-1.442-4-3.5a59.19 59.19 0 0 0 7.5-10.5 73.74 73.74 0 0 0 0-12c5.867-4.529 10.2-10.195 13-17l12-12c1.559-1.717 2.392-3.717 2.5-6 3.43.393 6.596-.273 9.5-2a63.15 63.15 0 0 1 7-11c.724-5.818.057-11.485-2-17-2.464-1.295-3.964-3.295-4.5-6a241.827 241.827 0 0 0 7.5-10c1.476-4.576 1.81-9.243 1-14a229.254 229.254 0 0 0-6-29l-1-15a78.034 78.034 0 0 1-4-14 11.532 11.532 0 0 0-3.5-4.5 272.48 272.48 0 0 0-20-9.5c-1.529.029-2.696.696-3.5 2L568.5 783c-6.667 4.308-11.334 2.808-14-4.5 3.473-6.986 8.306-12.986 14.5-18a22.573 22.573 0 0 0 4-8 370.009 370.009 0 0 1-2.5-31.5c-.928-15.164 3.572-28.331 13.5-39.5 5.377-11.179 8.377-22.846 9-35a215.781 215.781 0 0 0 10-26 576.535 576.535 0 0 1 29-54 249.034 249.034 0 0 0 4-15l3-4a42.479 42.479 0 0 0 0-13 83.294 83.294 0 0 1-4.5-18.5c1.401-17.068 10.401-27.735 27-32a301.798 301.798 0 0 1 18-4l5-3a634.493 634.493 0 0 0 27.5-32.5 1914.358 1914.358 0 0 0 52.5-51.5 129.21 129.21 0 0 0 15.5-10.5 353.986 353.986 0 0 0 8.5-24 32.448 32.448 0 0 0 6-2.5c-1.825-1.466-2.325-3.299-1.5-5.5a30.423 30.423 0 0 1 4.5-8 3.647 3.647 0 0 1 1.5 1 8.43 8.43 0 0 0 .5-4 11.988 11.988 0 0 0-6 1c-1.21-4.953.79-6.786 6-5.5 2.107 1.264 3.107 3.097 3 5.5 11.437-2.939 22.771-2.439 34 1.5 3.333.667 6.667.667 10 0a308.447 308.447 0 0 1 51-15c9.492-4.54 19.492-7.206 30-8a204.46 204.46 0 0 0 14-8.5 22.77 22.77 0 0 0 5.5 2 122.718 122.718 0 0 1 34.5-1c3.084-.131 5.75-1.131 8-3z"/><path style="opacity:1" fill="#1b1b1b" d="M803.5 345.5c2.466-1.134 5.133-1.301 8-.5-2.546 1.812-5.212 1.978-8 .5z"/><path style="opacity:1" d="M903.5 499.5c3.912-.865 6.412-3.198 7.5-7l8.5-34c-3.67-.173-6.17 1.493-7.5 5a756.39 756.39 0 0 1-7 33c-.671.752-1.504 1.086-2.5 1-4.454-1.282-8.287-3.615-11.5-7a240.15 240.15 0 0 1-7-19c-.667-1.333-.667-2.667 0-4a78.494 78.494 0 0 0 10-6l1-10a367.403 367.403 0 0 0 9-20c2.691-6.029 7.191-9.862 13.5-11.5l9.5-9.5a528.988 528.988 0 0 1 11.5-23.5c3.642.651 6.975 2.151 10 4.5a10.258 10.258 0 0 0 4-1.5 74.325 74.325 0 0 1 10.5-10.5c3.838-7.502 9.338-13.336 16.5-17.5a380.405 380.405 0 0 0 19-2.5c4.75-.361 8.92.972 12.5 4 4.44 10.111 11.78 17.111 22 21a27.26 27.26 0 0 0 9.5-3.5c5.45-6.461 11.79-11.794 19-16 4.4-.978 8.57-.478 12.5 1.5-.19 3.76.97 6.926 3.5 9.5a890.96 890.96 0 0 0 39 32 417.942 417.942 0 0 0 25 11c6.75.715 13.42.215 20-1.5 27.33 1.835 51.33 11.668 72 29.5 10.11 4.777 19.11 11.111 27 19 24.01 24.003 44.18 50.836 60.5 80.5a199.474 199.474 0 0 0-4.5 25.5c-.65 10.697 3.68 18.697 13 24a53.477 53.477 0 0 0 13 6c4.33 3.803 6.16 8.636 5.5 14.5a290.807 290.807 0 0 0 10 32c10.69 43.584 12.69 87.584 6 132a2392.515 2392.515 0 0 0-11 47 85.49 85.49 0 0 1-7 16 293.02 293.02 0 0 1-8 26 1060.693 1060.693 0 0 1-35 67 510.568 510.568 0 0 1-42.5 54c-13.67 10.5-27.33 21-41 31.5-14.5 9.08-28.84 18.42-43 28-12 5.67-24 11.33-36 17-17.64-.35-34.64 2.99-51 10-5.33.67-10.67.67-16 0-1.61-4.65-2.44-9.48-2.5-14.5-3.61-4.92-7.61-5.26-12-1-.5 3.32-.67 6.65-.5 10-2.64.45-4.97 1.62-7 3.5-1.33.67-2.67.67-4 0l-11.5-11.5c-.77.14-1.44.48-2 1-.12 2.51-1.12 4.51-3 6-2.23-1.2-4.4-2.53-6.5-4-2.9.73-4.57 2.57-5 5.5-.95.48-1.95.65-3 .5 1.35-6.2-.99-8.7-7-7.5-1.56 2.73-3.89 3.9-7 3.5a322.026 322.026 0 0 0-17.5-3c-4.325 1.57-8.492 1.23-12.5-1a64.287 64.287 0 0 1-8.5 5 96.985 96.985 0 0 0-19-4c-3.595 1.7-7.429 2.7-11.5 3-1.667-.17-3.333-.33-5-.5-3.643-5-6.643-4.67-9 1-1.5.17-3 .33-4.5.5-2.937-.19-5.437-1.19-7.5-3-5.307.69-10.641.53-16-.5-30.114-10.23-58.114-24.23-84-42-13.614-14.29-28.947-26.29-46-36a547.763 547.763 0 0 1-27.5-25.5l-27-35-24-40c-15.685-31.389-26.352-64.389-32-99a91.988 91.988 0 0 1-3-9 1180.113 1180.113 0 0 0-3.5-63.5 696.987 696.987 0 0 0 2.5-46.5 453.045 453.045 0 0 1 14-38 451.187 451.187 0 0 0 27-43c8.394-7.95 18.227-13.45 29.5-16.5 16.557-9.268 25.391-23.435 26.5-42.5l.5-15.5a265.644 265.644 0 0 0-3.5-38.5l3.5-3.5a75.745 75.745 0 0 1 26 2c10.667.667 21.333.667 32 0 10.817-5.886 22.15-7.052 34-3.5 7.217-4.218 14.884-5.051 23-2.5 9.285 4.619 15.785 11.786 19.5 21.5 4.698 5.401 10.364 9.068 17 11a85.81 85.81 0 0 0 7.5-1z"/><path style="opacity:1" fill="#ececec" d="m903.5 499.5-1-2c.996.086 1.829-.248 2.5-1a756.39 756.39 0 0 0 7-33c1.33-3.507 3.83-5.173 7.5-5l-8.5 34c-1.088 3.802-3.588 6.135-7.5 7z"/><path style="opacity:1" fill="#f9f9f9" d="M994.5 539.5c1.89-.203 3.39.463 4.5 2a19.948 19.948 0 0 1 2.5 9c41.13-5.202 66.96 12.131 77.5 52 4.7 26.77 1.37 52.436-10 77-18.09 31.802-45.59 47.135-82.5 46 .287 52.482 12.787 101.816 37.5 148 38.43 59.282 92.26 81.115 161.5 65.5 15.62-4.974 29.95-12.307 43-22 9.33-8 18.67-16 28-24 8.89-1.355 11.39 2.145 7.5 10.5-46.52 51.669-103.02 67.169-169.5 46.5-46.14-19.474-78.97-52.308-98.5-98.5-19.989-47.212-27.489-96.046-22.5-146.5 2-.667 4-.667 6 0 1.805 2.403 4.138 4.07 7 5 35.98 1.087 60.81-15.079 74.5-48.5 7.48-20.653 8.48-41.653 3-63-12.08-33.205-35.08-44.538-69-34a79707.988 79707.988 0 0 1-60 294c-.833 2.167-2.333 3.667-4.5 4.5-3.591.789-7.091.622-10.5-.5a10.413 10.413 0 0 1-1.5-5 30778.302 30778.302 0 0 1 59.5-285l-10 8c-2.619 7.726-7.786 10.226-15.5 7.5l-2.5-2.5c-1.493-9.531 2.007-16.698 10.5-21.5a98.04 98.04 0 0 1 25-11 41.982 41.982 0 0 1 9-13.5z"/><path style="opacity:1" fill="#f9f9f9" d="M1157.5 542.5c3.72-.727 6.39.606 8 4 42.68 2.416 68.85 24.416 78.5 66 3.81 32.646-3.19 62.646-21 90-20.47 25.288-47.14 37.955-80 38a61.62 61.62 0 0 1-17-2l-1.5 1c-8.7 39.2-16.87 78.533-24.5 118-1.86 5.678-5.69 7.845-11.5 6.5-1.94-1.722-2.94-3.889-3-6.5 7.5-40.671 15.83-81.171 25-121.5a3.92 3.92 0 0 0-1-2c-9.17-2.585-17.5-6.752-25-12.5-2.14-6.707.36-10.374 7.5-11a175.966 175.966 0 0 1 22.5 7 31095.297 31095.297 0 0 1 32-152c-4.86 1.096-9.19 3.262-13 6.5a111.907 111.907 0 0 1-12 13c-7.5 1.833-10.33-1-8.5-8.5 8.63-14.948 21.46-24.115 38.5-27.5 1.53-2.69 3.53-4.857 6-6.5zM864.5 547.5c32.47-1.206 52.137 14.128 59 46-1.197 6.773-5.197 9.273-12 7.5a1034.535 1034.535 0 0 0-7.5-20.5c-9.976-15.902-24.142-21.735-42.5-17.5-10.596 4.318-17.096 12.151-19.5 23.5-1.756 16.374-.089 32.374 5 48a253.014 253.014 0 0 0 8 24 2133.099 2133.099 0 0 1 28 68c8.842 22.896 12.176 46.563 10 71-12.084 54.812-45.917 77.312-101.5 67.5-51.667-12.155-69.5-43.655-53.5-94.5 7.519-15.522 18.019-28.689 31.5-39.5 8.92-2.085 11.753 1.082 8.5 9.5a155.6 155.6 0 0 0-20 22c-10.298 18.451-12.298 37.785-6 58 7.115 13.486 17.948 22.653 32.5 27.5 22.13 7.429 43.463 5.762 64-5 23.441-19.302 32.941-44.135 28.5-74.5a328.699 328.699 0 0 0-10-38 5982.403 5982.403 0 0 1-32-81 570.138 570.138 0 0 1-9-32c-3.172-20.487 1.162-39.153 13-56 7.074-7.45 15.574-12.117 25.5-14z"/><path style="opacity:1" fill="#010101" d="M1162.5 562.5c37.06 2.214 59.56 21.547 67.5 58 4.13 32.353-5.04 60.186-27.5 83.5-21.37 18.345-46.04 24.845-74 19.5a5869.18 5869.18 0 0 1 34-161z"/></svg>