<?xml version="1.0" encoding="UTF-8"?>
<!DOCTYPE svg PUBLIC "-//W3C//DTD SVG 1.1//EN" "http://www.w3.org/Graphics/SVG/1.1/DTD/svg11.dtd">
<svg xmlns="http://www.w3.org/2000/svg" version="1.1" width="2000px" height="1500px" style="shape-rendering:geometricPrecision; text-rendering:geometricPrecision; image-rendering:optimizeQuality; fill-rule:evenodd; clip-rule:evenodd" xmlns:xlink="http://www.w3.org/1999/xlink">
<g><path style="opacity:1" fill="#fefefe" d="M -0.5,-0.5 C 666.167,-0.5 1332.83,-0.5 1999.5,-0.5C 1999.5,499.5 1999.5,999.5 1999.5,1499.5C 1332.83,1499.5 666.167,1499.5 -0.5,1499.5C -0.5,999.5 -0.5,499.5 -0.5,-0.5 Z"/></g>
<g><path style="opacity:1" fill="#010101" d="M 989.5,308.5 C 1000.51,308.333 1011.51,308.5 1022.5,309C 1042.18,313.649 1062.18,315.983 1082.5,316C 1098.35,318.734 1114.02,322.067 1129.5,326C 1136.23,330.182 1143.56,332.182 1151.5,332C 1156.74,335.453 1162.41,338.12 1168.5,340C 1178.08,340.411 1186.41,343.744 1193.5,350C 1201.49,353.325 1208.83,357.659 1215.5,363C 1224.5,366.006 1232.5,370.673 1239.5,377C 1243.52,379.034 1247.52,381.034 1251.5,383C 1263.02,391.695 1273.69,401.195 1283.5,411.5C 1294.52,418.342 1304.52,426.509 1313.5,436C 1316.58,437.139 1319.58,438.472 1322.5,440C 1329,446.5 1335.5,453 1342,459.5C 1347.79,473.076 1354.12,486.409 1361,499.5C 1375.45,520.066 1386.45,542.399 1394,566.5C 1395.59,568.67 1396.92,571.004 1398,573.5C 1403.57,589.311 1408.57,605.311 1413,621.5C 1414.67,623.833 1416.33,626.167 1418,628.5C 1419.7,648.831 1421.7,669.164 1424,689.5C 1424.77,693.049 1426.11,696.382 1428,699.5C 1432.71,704.543 1437.05,709.877 1441,715.5C 1441.5,719.514 1441.33,723.514 1440.5,727.5C 1440.8,730.926 1441.8,734.092 1443.5,737C 1440.82,742.021 1436.99,746.187 1432,749.5C 1427.09,764.481 1424.09,779.814 1423,795.5C 1420.69,803.734 1418.86,812.067 1417.5,820.5C 1417.83,821.833 1418.17,823.167 1418.5,824.5C 1423.79,828.127 1428.46,832.46 1432.5,837.5C 1431.07,838.935 1429.4,839.935 1427.5,840.5C 1423.94,838.52 1420.27,836.687 1416.5,835C 1415.22,834.316 1414.05,834.483 1413,835.5C 1409.53,849.898 1404.87,863.898 1399,877.5C 1386.94,903.278 1374.61,928.945 1362,954.5C 1359.33,958.5 1356.67,962.5 1354,966.5C 1336.41,982.419 1319.91,999.252 1304.5,1017C 1294.89,1021.89 1290.56,1029.56 1291.5,1040C 1291.56,1041.71 1290.89,1043.04 1289.5,1044C 1285.28,1043.08 1280.94,1042.41 1276.5,1042C 1270.92,1046.96 1264.59,1050.62 1257.5,1053C 1250.78,1058.72 1243.78,1064.05 1236.5,1069C 1228.83,1073.17 1221.49,1077.83 1214.5,1083C 1214.02,1085.9 1213.02,1088.57 1211.5,1091C 1205.13,1090.08 1198.79,1090.42 1192.5,1092C 1185.03,1094.9 1178.03,1098.57 1171.5,1103C 1162.16,1106.34 1152.82,1109.67 1143.5,1113C 1138,1116.92 1132.34,1120.58 1126.5,1124C 1124.06,1129.12 1120.06,1131.79 1114.5,1132C 1112.38,1133.12 1110.54,1134.62 1109,1136.5C 1108.18,1141.63 1108.68,1146.63 1110.5,1151.5C 1109.82,1156.35 1107.16,1158.19 1102.5,1157C 1098.05,1152.67 1094.88,1147.5 1093,1141.5C 1090.18,1137.93 1086.52,1135.93 1082,1135.5C 1077.42,1136.37 1073.26,1138.21 1069.5,1141C 1065.25,1141.2 1061.08,1141.7 1057,1142.5C 1058.32,1149.32 1058.65,1156.32 1058,1163.5C 1057.06,1165.95 1055.22,1166.95 1052.5,1166.5C 1044.92,1165.97 1040.76,1161.97 1040,1154.5C 1039.61,1153.57 1038.95,1152.91 1038,1152.5C 1034.01,1153.16 1030.18,1154.33 1026.5,1156C 1020.45,1157.95 1016.95,1155.79 1016,1149.5C 1015.1,1148.3 1013.93,1147.47 1012.5,1147C 1006.26,1145.26 999.922,1143.93 993.5,1143C 989.24,1141.87 985.24,1140.2 981.5,1138C 970.853,1136.19 960.186,1136.19 949.5,1138C 945.696,1140.3 942.03,1142.8 938.5,1145.5C 935.833,1143.5 934.5,1140.83 934.5,1137.5C 932.801,1137.62 931.135,1137.95 929.5,1138.5C 923.541,1137.04 919.708,1133.37 918,1127.5C 916.786,1125.95 915.286,1124.78 913.5,1124C 906.791,1123.78 900.458,1122.28 894.5,1119.5C 893.5,1119.67 892.5,1119.83 891.5,1120C 895.031,1124.23 897.031,1129.06 897.5,1134.5C 894.552,1134.22 891.719,1134.56 889,1135.5C 888.667,1139.17 888.333,1142.83 888,1146.5C 885.086,1147.75 883.253,1149.91 882.5,1153C 882.759,1154.26 883.426,1155.26 884.5,1156C 889.754,1158.8 895.087,1161.3 900.5,1163.5C 902.877,1167.08 903.043,1170.75 901,1174.5C 895.077,1182.2 887.577,1187.53 878.5,1190.5C 874.896,1190.45 872.396,1188.78 871,1185.5C 870.833,1182.67 870.667,1179.83 870.5,1177C 870.444,1170.96 871.444,1165.13 873.5,1159.5C 869.818,1159.67 866.152,1159.5 862.5,1159C 861.069,1158.53 859.903,1157.7 859,1156.5C 860.072,1152.29 860.406,1147.96 860,1143.5C 855.717,1142.27 851.55,1140.77 847.5,1139C 849.833,1138 852.167,1137 854.5,1136C 852.888,1129.27 849.388,1123.77 844,1119.5C 843.174,1112.68 840.341,1106.85 835.5,1102C 827.512,1100 819.512,1098 811.5,1096C 801.994,1091.08 792.994,1085.42 784.5,1079C 776.811,1072.31 769.478,1065.31 762.5,1058C 758.12,1053.95 753.454,1050.29 748.5,1047C 742.167,1039.33 735.167,1032.33 727.5,1026C 724.97,1024.58 722.303,1024.25 719.5,1025C 714.306,1026.85 709.472,1029.35 705,1032.5C 704.768,1029.26 703.268,1026.76 700.5,1025C 688.108,1024.45 675.774,1025.12 663.5,1027C 660.578,1027.42 657.911,1028.42 655.5,1030C 657.61,1032.53 658.11,1035.03 657,1037.5C 651.284,1037.6 646.118,1039.27 641.5,1042.5C 637.681,1041.05 634.015,1041.38 630.5,1043.5C 632.46,1039.08 636.126,1035.91 641.5,1034C 640.809,1032.93 640.309,1031.77 640,1030.5C 638.951,1029.48 637.784,1029.32 636.5,1030C 634.5,1032 632.5,1034 630.5,1036C 628.888,1036.72 627.388,1036.55 626,1035.5C 625.516,1033.09 625.85,1030.75 627,1028.5C 629.19,1026.61 631.023,1024.44 632.5,1022C 627.021,1016.19 621.188,1010.69 615,1005.5C 608.614,994.946 600.114,986.613 589.5,980.5C 585.385,982.124 581.385,983.957 577.5,986C 575.758,989.909 572.758,992.075 568.5,992.5C 566.734,992.566 565.734,991.732 565.5,990C 566.708,985.446 569.708,983.28 574.5,983.5C 578.366,979.47 582.033,975.303 585.5,971C 581.435,965.544 578.769,959.544 577.5,953C 576.167,952.333 574.833,952.333 573.5,953C 570.295,956.529 567.628,956.195 565.5,952C 568.403,948.768 570.903,945.268 573,941.5C 573.326,937.47 573.326,933.47 573,929.5C 578.896,924.949 583.229,919.282 586,912.5C 591.744,907.427 596.744,901.76 601,895.5C 608.322,895.52 612.656,891.853 614,884.5C 617.379,881.215 618.379,877.215 617,872.5C 616.789,867.907 614.956,864.24 611.5,861.5C 611.013,860.554 610.68,859.554 610.5,858.5C 611.462,855.755 613.295,853.755 616,852.5C 618.872,848.453 620.038,843.953 619.5,839C 616.758,822.867 614.258,806.7 612,790.5C 610.414,786.656 609.414,782.656 609,778.5C 608.117,775.898 606.617,773.731 604.5,772C 597.949,768.558 591.283,765.391 584.5,762.5C 582.971,762.529 581.804,763.196 581,764.5C 576.833,770.667 572.667,776.833 568.5,783C 561.833,787.308 557.166,785.808 554.5,778.5C 559.35,770.472 565.183,763.139 572,756.5C 572.333,755.167 572.667,753.833 573,752.5C 571.887,742.748 571.054,732.914 570.5,723C 570.107,711.284 572.274,700.117 577,689.5C 583.37,683.418 587.703,676.085 590,667.5C 592.36,659.695 593.694,651.695 594,643.5C 598.164,635.505 601.497,627.171 604,618.5C 612.825,600.848 622.158,583.515 632,566.5C 633.278,559.684 635.611,553.351 639,547.5C 639.667,543.5 639.667,539.5 639,535.5C 636.944,529.111 635.444,522.611 634.5,516C 635.871,498.958 644.871,488.291 661.5,484C 667.469,482.481 673.469,481.148 679.5,480C 681.167,479 682.833,478 684.5,477C 694.042,466.46 703.209,455.627 712,444.5C 729.525,427.974 746.692,411.141 763.5,394C 769.087,390.29 774.587,386.457 780,382.5C 783.34,374.644 786.174,366.644 788.5,358.5C 790.624,357.851 792.624,357.017 794.5,356C 793.426,355.261 792.759,354.261 792.5,353C 793.305,349.084 794.971,345.584 797.5,342.5C 798.086,342.709 798.586,343.043 799,343.5C 799.49,342.207 799.657,340.873 799.5,339.5C 797.409,339.318 795.409,339.652 793.5,340.5C 792.321,335.516 794.321,333.683 799.5,335C 801.607,336.264 802.607,338.097 802.5,340.5C 808.342,339.975 814.175,339.309 820,338.5C 825.504,339.584 831.004,340.75 836.5,342C 839.833,342.667 843.167,342.667 846.5,342C 860.62,335.579 875.287,331.246 890.5,329C 897.399,327.277 904.065,324.944 910.5,322C 916.13,320.815 921.797,319.815 927.5,319C 932.322,316.328 936.989,313.495 941.5,310.5C 943.239,311.4 945.072,312.067 947,312.5C 958.45,310.386 969.95,310.052 981.5,311.5C 984.584,311.369 987.25,310.369 989.5,308.5 Z"/></g>
<g><path style="opacity:1" fill="#e5e5e5" d="M 803.5,345.5 C 805.966,344.366 808.633,344.199 811.5,345C 808.954,346.812 806.288,346.978 803.5,345.5 Z"/></g>
<g><path style="opacity:1" fill="#fefefe" d="M 992.5,359.5 C 998.434,358.889 1004.1,359.722 1009.5,362C 1013.74,368.908 1018.74,375.241 1024.5,381C 1029.65,383.905 1034.98,384.238 1040.5,382C 1046.92,375.575 1053.92,369.909 1061.5,365C 1065.17,364.333 1068.83,364.333 1072.5,365C 1074.16,367.507 1074.99,370.341 1075,373.5C 1088.21,385.044 1101.71,396.211 1115.5,407C 1123.93,411.547 1132.59,415.547 1141.5,419C 1147.93,419.673 1154.26,419.173 1160.5,417.5C 1188.18,419.003 1212.51,428.836 1233.5,447C 1249.12,455.282 1262.28,466.449 1273,480.5C 1293.11,500.598 1309.28,523.431 1321.5,549C 1316.62,560.154 1315.46,571.654 1318,583.5C 1323.82,592.642 1331.99,598.809 1342.5,602C 1346.83,605.803 1348.66,610.636 1348,616.5C 1350.91,627.301 1354.24,637.968 1358,648.5C 1369.51,694.495 1371.18,740.829 1363,787.5C 1349.55,850.73 1323.88,908.397 1286,960.5C 1277.25,970.41 1268.75,980.41 1260.5,990.5C 1229.9,1015.14 1197.57,1037.3 1163.5,1057C 1155.25,1059.79 1147.25,1063.13 1139.5,1067C 1134.18,1066.85 1128.84,1066.85 1123.5,1067C 1111.93,1069.52 1100.6,1072.86 1089.5,1077C 1083.92,1077.81 1078.42,1077.64 1073,1076.5C 1071.86,1071.92 1071.19,1067.25 1071,1062.5C 1067.48,1058.93 1063.64,1058.59 1059.5,1061.5C 1058.58,1064.76 1058.25,1068.09 1058.5,1071.5C 1055.92,1071.57 1053.92,1072.74 1052.5,1075C 1050.83,1075.67 1049.17,1075.67 1047.5,1075C 1043.8,1071.63 1040.46,1067.97 1037.5,1064C 1036.55,1063.52 1035.55,1063.35 1034.5,1063.5C 1034.68,1065.94 1034.02,1068.1 1032.5,1070C 1029.74,1069.4 1026.91,1068.57 1024,1067.5C 1023.17,1067.67 1022.33,1067.83 1021.5,1068C 1021.21,1071.09 1019.54,1072.59 1016.5,1072.5C 1016.66,1070.47 1016.5,1068.47 1016,1066.5C 1015.16,1065.38 1013.99,1064.71 1012.5,1064.5C 1009.2,1066.11 1005.86,1067.78 1002.5,1069.5C 997.833,1068.33 993.167,1067.17 988.5,1066C 985.306,1065.41 982.139,1065.57 979,1066.5C 973.959,1063.14 969.792,1063.97 966.5,1069C 965.5,1069.17 964.5,1069.33 963.5,1069.5C 957.479,1067.85 951.313,1066.52 945,1065.5C 941.665,1067.45 937.999,1068.45 934,1068.5C 932.167,1068.33 930.333,1068.17 928.5,1068C 924.736,1063.16 921.736,1063.49 919.5,1069C 918,1069.17 916.5,1069.33 915,1069.5C 912.063,1069.31 909.563,1068.31 907.5,1066.5C 902.178,1067.34 896.845,1067.17 891.5,1066C 861.696,1056.26 834.03,1042.6 808.5,1025C 799.464,1016.3 790.131,1007.96 780.5,1000C 765.504,990.348 751.337,979.514 738,967.5C 733.053,959.951 727.386,952.951 721,946.5C 701.281,920.408 684.614,892.408 671,862.5C 661.288,835.309 653.621,807.643 648,779.5C 647.238,758.626 646.071,737.793 644.5,717C 645.826,701.202 646.659,685.368 647,669.5C 650.872,656.553 655.538,643.886 661,631.5C 670.75,617.672 679.75,603.339 688,588.5C 690.537,585.628 693.37,583.128 696.5,581C 706.81,576.512 716.81,571.512 726.5,566C 736.965,556.903 742.465,545.403 743,531.5C 743.167,525.167 743.333,518.833 743.5,512.5C 743.683,500.034 742.85,487.701 741,475.5C 742.167,474.333 743.333,473.167 744.5,472C 753.277,471.163 761.943,471.83 770.5,474C 781.167,474.667 791.833,474.667 802.5,474C 810.227,469.318 818.56,467.318 827.5,468C 833.155,471.613 838.488,471.28 843.5,467C 848.167,466.333 852.833,466.333 857.5,467C 867.727,471.561 874.894,479.061 879,489.5C 883.698,494.901 889.364,498.568 896,500.5C 900.77,500.394 905.104,499.06 909,496.5C 913.013,483.964 916.513,471.297 919.5,458.5C 918.127,458.343 916.793,458.51 915.5,459C 914.333,460.833 913.167,462.667 912,464.5C 910.111,471.723 908.777,479.057 908,486.5C 907.06,490.101 905.893,493.601 904.5,497C 899.875,497.026 895.875,495.36 892.5,492C 890.454,487.474 888.287,482.974 886,478.5C 884.52,474.928 883.854,471.262 884,467.5C 884.374,466.584 884.874,465.75 885.5,465C 893.776,464.342 896.943,459.842 895,451.5C 898.595,440.975 903.762,431.308 910.5,422.5C 916.869,420.646 922.036,416.979 926,411.5C 930.024,403.287 934.19,395.12 938.5,387C 939.5,386.333 940.5,386.333 941.5,387C 943.723,388.733 946.056,390.233 948.5,391.5C 949.938,391.281 951.271,390.781 952.5,390C 955,386.167 958.167,383 962,380.5C 965.5,375.667 969,370.833 972.5,366C 978.595,361.69 985.261,359.523 992.5,359.5 Z"/></g>
<g><path style="opacity:1" fill="#040404" d="M 994.5,539.5 C 995.822,539.33 996.989,539.663 998,540.5C 999.543,543.966 1001.21,547.3 1003,550.5C 1043.57,545.771 1068.9,563.104 1079,602.5C 1085.09,636.074 1078.42,666.741 1059,694.5C 1039.79,716.181 1015.63,726.515 986.5,725.5C 986.32,778.123 998.82,827.456 1024,873.5C 1059.09,928.885 1109.26,951.719 1174.5,942C 1194.3,937.433 1212.3,929.099 1228.5,917C 1237.83,909 1247.17,901 1256.5,893C 1265.39,891.645 1267.89,895.145 1264,903.5C 1218.4,953.777 1162.9,969.61 1097.5,951C 1049.84,932.008 1016.01,898.841 996,851.5C 977.367,805.663 969.033,757.996 971,708.5C 972.691,704.787 975.525,703.621 979.5,705C 981.305,707.403 983.638,709.07 986.5,710C 1022.44,711.1 1047.28,694.934 1061,661.5C 1069.99,636.973 1069.66,612.639 1060,588.5C 1048.26,565.904 1029.76,557.07 1004.5,562C 1001.15,562.25 997.983,563.083 995,564.5C 974.784,662.467 954.784,760.467 935,858.5C 934.167,860.667 932.667,862.167 930.5,863C 927.5,863.667 924.5,863.667 921.5,863C 918.713,860.833 917.88,857.999 919,854.5C 938.676,760.425 958.343,666.425 978,572.5C 971.947,575.719 967.447,580.385 964.5,586.5C 959.388,590.58 954.554,590.247 950,585.5C 948.595,579.465 949.928,574.132 954,569.5C 963.138,561.513 973.638,556.013 985.5,553C 987.642,547.869 990.642,543.369 994.5,539.5 Z"/></g>
<g><path style="opacity:1" fill="#050505" d="M 1157.5,542.5 C 1162.21,541.881 1164.87,543.881 1165.5,548.5C 1201.74,548.252 1226.58,564.919 1240,598.5C 1247.66,628.252 1245.32,657.252 1233,685.5C 1213.64,722.615 1182.81,740.949 1140.5,740.5C 1135.56,740.556 1130.73,739.89 1126,738.5C 1125.5,738.833 1125,739.167 1124.5,739.5C 1115.8,778.723 1107.63,818.056 1100,857.5C 1097.82,862.689 1093.99,864.855 1088.5,864C 1086.56,862.278 1085.56,860.111 1085.5,857.5C 1093.11,817.165 1101.45,776.998 1110.5,737C 1110.41,735.893 1110.08,734.893 1109.5,734C 1099.91,731.455 1091.41,726.955 1084,720.5C 1082.89,714.267 1085.56,710.934 1092,710.5C 1099.26,712.032 1106.26,714.365 1113,717.5C 1113.95,717.095 1114.61,716.428 1115,715.5C 1125.82,665.557 1136.32,615.557 1146.5,565.5C 1137.2,567.624 1130.37,572.958 1126,581.5C 1122.09,585.653 1117.76,586.319 1113,583.5C 1112.33,581.167 1112.33,578.833 1113,576.5C 1121.49,561.684 1134.16,552.684 1151,549.5C 1153.35,547.318 1155.52,544.985 1157.5,542.5 Z"/></g>
<g><path style="opacity:1" fill="#050505" d="M 864.5,547.5 C 898.512,546.689 918.012,563.022 923,596.5C 920.413,601.068 916.579,602.568 911.5,601C 909.185,587.027 902.518,575.694 891.5,567C 867.453,554.952 850.953,561.452 842,586.5C 840.244,602.87 841.911,618.87 847,634.5C 856.625,663.042 867.625,691.042 880,718.5C 887.829,738.814 892.329,759.814 893.5,781.5C 889.424,845.734 855.424,873.567 791.5,865C 771.662,861.007 755.162,851.507 742,836.5C 732.615,819.953 729.948,802.286 734,783.5C 739.853,761.976 751.686,744.476 769.5,731C 778.42,728.915 781.253,732.082 778,740.5C 759.273,755.121 749.106,774.288 747.5,798C 748.457,824.632 761.79,841.632 787.5,849C 831.735,860.97 861.235,845.47 876,802.5C 878.747,790.557 879.08,778.557 877,766.5C 874.149,753.279 870.482,740.279 866,727.5C 852.272,695.709 839.939,663.376 829,630.5C 821.514,605.808 824.848,582.808 839,561.5C 846.064,554.055 854.564,549.388 864.5,547.5 Z"/></g>
<g><path style="opacity:1" fill="#fdfdfd" d="M 1161.5,562.5 C 1198.27,564.102 1221.1,582.769 1230,618.5C 1234.86,652.232 1225.36,681.065 1201.5,705C 1180.18,722.58 1155.85,728.747 1128.5,723.5C 1139.39,669.83 1150.39,616.164 1161.5,562.5 Z"/></g>
</svg>
