<?xml version="1.0" encoding="UTF-8"?>
<!DOCTYPE svg PUBLIC "-//W3C//DTD SVG 1.1//EN" "http://www.w3.org/Graphics/SVG/1.1/DTD/svg11.dtd">
<svg xmlns="http://www.w3.org/2000/svg" version="1.1" width="2000px" height="2250px" style="shape-rendering:geometricPrecision; text-rendering:geometricPrecision; image-rendering:optimizeQuality; fill-rule:evenodd; clip-rule:evenodd" xmlns:xlink="http://www.w3.org/1999/xlink">
<g><path style="opacity:0.991" fill="#000000" d="M 1999.5,1091.5 C 1999.5,1094.83 1999.5,1098.17 1999.5,1101.5C 1997.99,1104.1 1995.65,1105.43 1992.5,1105.5C 1992.39,1107.78 1991.56,1109.78 1990,1111.5C 1985,1115.83 1980,1120.17 1975,1124.5C 1973.56,1126.27 1972.56,1128.27 1972,1130.5C 1967.67,1147.84 1963.33,1165.17 1959,1182.5C 1958.65,1198.64 1956.98,1214.64 1954,1230.5C 1948.87,1249.69 1944.37,1269.02 1940.5,1288.5C 1940.53,1290.03 1941.2,1291.2 1942.5,1292C 1945.05,1294.44 1948.05,1296.11 1951.5,1297C 1958.67,1304.17 1965.83,1311.33 1973,1318.5C 1974.2,1320.68 1974.7,1323.01 1974.5,1325.5C 1970.76,1327.36 1966.76,1328.69 1962.5,1329.5C 1956.18,1325.34 1949.51,1321.84 1942.5,1319C 1938.68,1317.37 1934.84,1317.21 1931,1318.5C 1928.8,1328.43 1925.8,1338.09 1922,1347.5C 1920.56,1353.81 1919.23,1360.15 1918,1366.5C 1906.14,1399.88 1891.81,1432.22 1875,1463.5C 1874.46,1466.53 1873.79,1469.53 1873,1472.5C 1853.99,1510.87 1834.99,1549.2 1816,1587.5C 1808.65,1600.69 1799.48,1612.52 1788.5,1623C 1787.17,1623.67 1785.83,1624.33 1784.5,1625C 1756.55,1651.66 1730.21,1679.66 1705.5,1709C 1698.25,1715.25 1691.25,1721.91 1684.5,1729C 1680.41,1731.13 1676.58,1733.63 1673,1736.5C 1666.75,1744.66 1660.75,1752.99 1655,1761.5C 1655.44,1767.45 1656.61,1773.28 1658.5,1779C 1657.44,1788.04 1652.44,1791.37 1643.5,1789C 1640,1786.42 1636.34,1784.08 1632.5,1782C 1630.5,1781.33 1628.5,1781.33 1626.5,1782C 1616.56,1788.28 1606.89,1794.94 1597.5,1802C 1589.96,1804.95 1582.63,1808.29 1575.5,1812C 1569.46,1817.71 1563.13,1823.04 1556.5,1828C 1533,1843.92 1509.34,1859.58 1485.5,1875C 1485,1875.5 1484.5,1876 1484,1876.5C 1485.79,1887.31 1481.45,1893.64 1471,1895.5C 1466,1894.5 1461,1893.5 1456,1892.5C 1449.51,1893.41 1443.01,1894.24 1436.5,1895C 1424.74,1900.88 1412.74,1906.22 1400.5,1911C 1395.99,1915.84 1390.66,1919.5 1384.5,1922C 1371.8,1926.67 1359.14,1931.33 1346.5,1936C 1340.91,1937.63 1335.24,1938.96 1329.5,1940C 1315.42,1949.76 1301.08,1959.09 1286.5,1968C 1282.49,1973.04 1278.49,1978.04 1274.5,1983C 1268.94,1984.74 1263.27,1986.07 1257.5,1987C 1246.33,1993.51 1242.83,2003.01 1247,2015.5C 1253.03,2024.23 1252.87,2032.73 1246.5,2041C 1241.19,2044.21 1235.85,2044.21 1230.5,2041C 1221.91,2032 1215.74,2021.5 1212,2009.5C 1204.52,1997.98 1194.02,1992.81 1180.5,1994C 1172.91,1997.46 1165.58,2001.46 1158.5,2006C 1155.57,2006.89 1152.57,2007.39 1149.5,2007.5C 1144.18,2006.64 1138.85,2006.47 1133.5,2007C 1128.65,2010.89 1127.49,2015.73 1130,2021.5C 1132.68,2023.53 1134.35,2026.19 1135,2029.5C 1138.66,2065.56 1125.66,2073.56 1096,2053.5C 1095.67,2051.5 1095.33,2049.5 1095,2047.5C 1092.61,2042.44 1090.44,2037.28 1088.5,2032C 1079.15,2033.26 1070.15,2035.92 1061.5,2040C 1056.5,2040.67 1051.5,2040.67 1046.5,2040C 1044.71,2039.22 1043.21,2038.05 1042,2036.5C 1038.95,2024.78 1031.45,2017.95 1019.5,2016C 999.407,2014.23 980.407,2008.9 962.5,2000C 949.469,1995.89 936.136,1994.56 922.5,1996C 911.218,1997.77 899.885,1999.11 888.5,2000C 880.468,2002.69 873.802,2007.35 868.5,2014C 865.012,2017.31 861.845,2017.14 859,2013.5C 855.8,2008.89 853.633,2003.89 852.5,1998.5C 851.833,1998.17 851.167,1997.83 850.5,1997.5C 846.682,2000.3 842.682,2000.8 838.5,1999C 826.761,1994.6 819.261,1986.43 816,1974.5C 813.736,1971.57 810.902,1969.4 807.5,1968C 797.531,1966.41 787.531,1965.07 777.5,1964C 775.395,1962.81 773.728,1961.14 772.5,1959C 767.924,1957.52 763.257,1957.19 758.5,1958C 764.836,1966.68 769.836,1976.01 773.5,1986C 772.833,1987.33 772.167,1988.67 771.5,1990C 765.639,1991.79 759.639,1992.79 753.5,1993C 752.667,1993.83 751.833,1994.67 751,1995.5C 750.667,2002.83 750.333,2010.17 750,2017.5C 748.128,2021.27 745.128,2023.6 741,2024.5C 739.851,2026.99 738.684,2029.49 737.5,2032C 737.903,2033.47 738.57,2034.81 739.5,2036C 750.762,2043.98 763.096,2049.64 776.5,2053C 781.115,2059.51 783.282,2066.67 783,2074.5C 781.667,2077.17 780.333,2079.83 779,2082.5C 771.833,2089.67 764.667,2096.83 757.5,2104C 750.534,2107.48 743.868,2111.48 737.5,2116C 729.628,2118.65 722.294,2117.65 715.5,2113C 713.116,2110.62 711.616,2107.79 711,2104.5C 709.502,2094.55 709.169,2084.55 710,2074.5C 712.239,2066.14 714.239,2057.81 716,2049.5C 715.5,2049 715,2048.5 714.5,2048C 707.124,2047.75 699.791,2047.08 692.5,2046C 686.613,2045.42 683.613,2042.25 683.5,2036.5C 685.063,2029.31 686.73,2022.14 688.5,2015C 687.002,2010.74 684.002,2008.07 679.5,2007C 674.833,2006.67 670.167,2006.33 665.5,2006C 662.382,2004.11 659.049,2002.77 655.5,2002C 660.929,1999.14 666.595,1996.97 672.5,1995.5C 670.801,1980.76 663.968,1969.1 652,1960.5C 649.284,1954.47 647.618,1948.13 647,1941.5C 642.841,1932.67 637.341,1924.83 630.5,1918C 626.323,1915.94 621.99,1914.27 617.5,1913C 603.606,1911.02 589.939,1908.02 576.5,1904C 566.737,1897.9 556.737,1892.23 546.5,1887C 540.207,1880.52 532.874,1875.52 524.5,1872C 510.5,1860 496.5,1848 482.5,1836C 468.706,1820.54 453.373,1806.87 436.5,1795C 423.5,1781.33 410.5,1767.67 397.5,1754C 393.167,1751 388.833,1748 384.5,1745C 376.853,1743.82 369.52,1744.82 362.5,1748C 353.854,1752.91 345.021,1757.41 336,1761.5C 335.5,1761.33 335,1761.17 334.5,1761C 335.743,1759.85 336.743,1758.51 337.5,1757C 335.562,1751.4 331.896,1747.4 326.5,1745C 299.034,1744.38 271.7,1746.05 244.5,1750C 238.704,1751.27 233.037,1752.93 227.5,1755C 229.732,1760.52 232.065,1766.02 234.5,1771.5C 233.975,1772.19 233.308,1772.69 232.5,1773C 225.66,1774.99 218.66,1775.99 211.5,1776C 205.523,1778.32 199.857,1781.16 194.5,1784.5C 191.775,1782.64 188.775,1781.64 185.5,1781.5C 179.491,1783.17 173.491,1784.84 167.5,1786.5C 171.772,1780.71 176.772,1775.21 182.5,1770C 186.387,1768.23 190.053,1766.23 193.5,1764C 192.866,1759.71 190.533,1756.88 186.5,1755.5C 185.5,1756 184.5,1756.5 183.5,1757C 178.801,1762.03 173.801,1766.7 168.5,1771C 161,1771.5 157.5,1768 158,1760.5C 159.711,1758.04 161.044,1755.38 162,1752.5C 166.604,1747.9 170.438,1742.73 173.5,1737C 169.5,1732.33 165.5,1727.67 161.5,1723C 144.186,1712.02 130.686,1697.52 121,1679.5C 114.274,1671.1 106.107,1664.6 96.5,1660C 91.1667,1654.67 85.8333,1649.33 80.5,1644C 70.6129,1648.61 60.6129,1653.27 50.5,1658C 47.5,1661.67 44.5,1665.33 41.5,1669C 20.7018,1674.22 17.3685,1668.88 31.5,1653C 33.2784,1652.3 35.1118,1651.8 37,1651.5C 39.1537,1652.25 41.3203,1652.42 43.5,1652C 50.4569,1641.38 59.1236,1632.38 69.5,1625C 64.3977,1615.57 58.8977,1606.4 53,1597.5C 52.339,1591.83 51.1723,1586.33 49.5,1581C 48.5,1580.33 47.5,1580.33 46.5,1581C 43.772,1583.39 40.772,1585.39 37.5,1587C 24.4856,1588.68 20.9856,1583.84 27,1572.5C 29.6754,1569.61 32.842,1567.44 36.5,1566C 40.1181,1560.43 41.7848,1554.27 41.5,1547.5C 40.3558,1541.88 39.8558,1536.22 40,1530.5C 40.6667,1529.17 41.3333,1527.83 42,1526.5C 55.2639,1516.97 64.9306,1504.63 71,1489.5C 81.7026,1480.46 91.3692,1470.46 100,1459.5C 101.741,1456.69 102.908,1453.69 103.5,1450.5C 109.762,1451.13 115.762,1450.29 121.5,1448C 127.057,1442.05 130.89,1435.21 133,1427.5C 138.259,1424.16 141.092,1419.32 141.5,1413C 139.411,1403.48 137.244,1393.98 135,1384.5C 132.629,1381.79 129.963,1379.46 127,1377.5C 123.667,1372.83 123.667,1368.17 127,1363.5C 135.27,1358.64 140.937,1351.64 144,1342.5C 145.161,1336.89 145.994,1331.22 146.5,1325.5C 141.621,1297.98 135.788,1270.65 129,1243.5C 128.832,1233.46 128.165,1223.46 127,1213.5C 126.443,1209.83 125.11,1206.49 123,1203.5C 122.884,1192.13 118.717,1182.63 110.5,1175C 95.9509,1167.56 81.2842,1160.39 66.5,1153.5C 64.2249,1154.6 62.0583,1155.93 60,1157.5C 54.0579,1167.11 47.7246,1176.44 41,1185.5C 35.4396,1201.08 24.6063,1207.25 8.5,1204C 4.18881,1201.49 1.18881,1197.99 -0.5,1193.5C -0.5,1190.83 -0.5,1188.17 -0.5,1185.5C 5.13662,1178.35 10.6366,1171.02 16,1163.5C 19.4459,1159.45 23.4459,1156.12 28,1153.5C 32.4263,1147.41 36.4263,1141.08 40,1134.5C 41.3841,1128.89 41.7175,1123.22 41,1117.5C 33.476,1086.74 32.476,1055.74 38,1024.5C 40.5861,1012.49 44.2528,1000.82 49,989.5C 56.4757,982.363 62.809,974.363 68,965.5C 71.1376,957.087 74.4709,948.754 78,940.5C 80.3453,930.124 83.012,919.791 86,909.5C 86.2269,905.676 86.0603,901.842 85.5,898C 85.5818,894.765 86.0818,891.598 87,888.5C 96.7242,868.052 105.058,847.052 112,825.5C 114.557,820.277 117.891,815.61 122,811.5C 129.266,797.093 135.933,782.426 142,767.5C 144.843,762.481 148.176,757.814 152,753.5C 153.737,747.291 156.071,741.291 159,735.5C 164,727.5 169,719.5 174,711.5C 177.295,700.986 179.962,690.319 182,679.5C 184.667,675.5 187.333,671.5 190,667.5C 191.418,662.572 191.751,657.572 191,652.5C 188.817,641.283 185.817,630.283 182,619.5C 178.711,606.163 178.711,592.83 182,579.5C 184.403,577.695 186.07,575.362 187,572.5C 190.82,557.001 199.654,545.168 213.5,537C 232.907,528.088 253.24,522.421 274.5,520C 285.626,516.363 294.126,509.53 300,499.5C 306.43,495.071 311.43,489.405 315,482.5C 330.04,465.795 344.707,448.795 359,431.5C 368.271,421.223 378.438,412.057 389.5,404C 403.935,390.57 417.268,376.236 429.5,361C 432.433,359.729 435.099,358.062 437.5,356C 449.529,343.637 461.862,331.637 474.5,320C 482.336,314.245 490.669,309.245 499.5,305C 501.667,302.833 503.833,300.667 506,298.5C 512.201,284.562 517.201,270.228 521,255.5C 522.471,251.419 524.138,247.419 526,243.5C 530.629,242.939 535.129,241.772 539.5,240C 537.759,238.38 535.925,236.88 534,235.5C 533.333,233.5 533.333,231.5 534,229.5C 536.873,222.915 540.373,216.748 544.5,211C 533.154,209.059 530.654,203.226 537,193.5C 544.446,188.992 551.112,189.992 557,196.5C 558.079,199.063 558.579,201.729 558.5,204.5C 564.077,204.475 569.411,203.308 574.5,201C 585.153,199.922 595.819,199.589 606.5,200C 618.53,202.873 630.53,205.873 642.5,209C 645.5,209.667 648.5,209.667 651.5,209C 670.167,202 688.833,195 707.5,188C 728.49,183.565 749.49,178.899 770.5,174C 781.376,170.562 792.043,166.562 802.5,162C 814.454,159.452 826.454,157.119 838.5,155C 843.5,152.667 848.5,150.333 853.5,148C 857.358,141.721 863.024,137.887 870.5,136.5C 874.639,137.99 878.806,139.323 883,140.5C 909.214,136.573 935.548,135.907 962,138.5C 969.562,135.537 977.396,133.371 985.5,132C 1005.83,131.333 1026.17,131.333 1046.5,132C 1060.53,133.393 1074.19,136.393 1087.5,141C 1097.31,141.386 1106.98,142.72 1116.5,145C 1140.18,145.936 1163.85,147.27 1187.5,149C 1202.69,154.476 1218.36,156.809 1234.5,156C 1238.51,157.442 1242.18,159.442 1245.5,162C 1256.3,163.713 1266.97,166.046 1277.5,169C 1283.55,169.26 1289.55,169.927 1295.5,171C 1309.04,180.138 1324.04,184.471 1340.5,184C 1345.46,186.147 1350.13,188.814 1354.5,192C 1361.58,194.47 1368.58,197.137 1375.5,200C 1395.23,201.8 1413.57,207.8 1430.5,218C 1433.2,221.038 1436.2,223.705 1439.5,226C 1447.99,229.743 1456.32,233.743 1464.5,238C 1478.91,250.387 1495.24,259.387 1513.5,265C 1529.6,279.382 1547.6,290.716 1567.5,299C 1577.55,307.382 1587.88,315.382 1598.5,323C 1608.19,334.325 1619.52,343.492 1632.5,350.5C 1634.04,356.214 1637.04,361.047 1641.5,365C 1666.44,379.585 1688.77,397.585 1708.5,419C 1716.16,420.996 1723.16,424.33 1729.5,429C 1744.33,444.5 1759.17,460 1774,475.5C 1779.91,487.552 1785.24,499.885 1790,512.5C 1796.51,526.18 1803.51,539.514 1811,552.5C 1811.33,554.167 1811.67,555.833 1812,557.5C 1819.51,569.184 1827.51,580.517 1836,591.5C 1845.2,611.572 1855.2,631.239 1866,650.5C 1873.88,671.537 1881.88,692.537 1890,713.5C 1892.7,718.853 1895.37,724.186 1898,729.5C 1902.4,744.368 1907.4,759.035 1913,773.5C 1917.37,794.621 1923.37,815.288 1931,835.5C 1935.74,840.64 1939.74,846.307 1943,852.5C 1944.65,860.672 1944.48,868.838 1942.5,877C 1943.23,885.965 1944.73,894.798 1947,903.5C 1947.33,909.5 1947.67,915.5 1948,921.5C 1953.37,942.157 1955.71,963.157 1955,984.5C 1956.59,996.67 1961.59,1007 1970,1015.5C 1975.5,1025 1982.5,1033.34 1991,1040.5C 1996.82,1049.69 1997.82,1059.36 1994,1069.5C 1992.02,1077.97 1993.86,1085.3 1999.5,1091.5 Z M 541.5,202.5 C 544.5,202.5 547.5,202.5 550.5,202.5C 550.664,205.187 550.497,207.854 550,210.5C 549.586,210.957 549.086,211.291 548.5,211.5C 548.598,210.384 548.098,209.384 547,208.5C 542.913,209.639 539.413,208.639 536.5,205.5C 538.36,204.675 540.026,203.675 541.5,202.5 Z M 563.5,212.5 C 568.177,212.835 572.844,213.335 577.5,214C 571.795,218.275 565.795,218.608 559.5,215C 561.066,214.392 562.4,213.558 563.5,212.5 Z M 988.5,247.5 C 995.175,247.334 1001.84,247.5 1008.5,248C 1013.52,248.673 1018.19,250.34 1022.5,253C 1028.62,260.735 1034.12,268.902 1039,277.5C 1044.47,283.969 1050.3,290.136 1056.5,296C 1071.34,305.191 1085.67,304.524 1099.5,294C 1109.83,284.333 1120.17,274.667 1130.5,265C 1140.08,258.751 1150.41,256.751 1161.5,259C 1164.58,259.786 1166.75,261.619 1168,264.5C 1169.4,269.498 1169.9,274.498 1169.5,279.5C 1191.53,296.02 1212.53,313.854 1232.5,333C 1242.45,339.949 1252.12,347.283 1261.5,355C 1280.81,365.324 1300.81,373.99 1321.5,381C 1325.3,381.772 1329.13,382.272 1333,382.5C 1343.96,380.845 1354.96,379.511 1366,378.5C 1383.62,380.506 1401.12,382.673 1418.5,385C 1424.29,386.262 1429.95,387.928 1435.5,390C 1450.83,397 1466.17,404 1481.5,411C 1491.05,418.125 1501.05,424.791 1511.5,431C 1516.5,435.333 1521.5,439.667 1526.5,444C 1554.81,458.921 1579.98,478.087 1602,501.5C 1607.72,508.216 1613.05,515.216 1618,522.5C 1624.97,528.468 1631.64,534.801 1638,541.5C 1651.33,558.833 1664.67,576.167 1678,593.5C 1682.75,604.006 1688.75,613.672 1696,622.5C 1705.77,637.035 1714.77,652.035 1723,667.5C 1723.67,671.167 1723.67,674.833 1723,678.5C 1719.39,689.669 1716.39,701.002 1714,712.5C 1707.84,735.736 1713.68,755.236 1731.5,771C 1744.29,780.774 1758.29,788.44 1773.5,794C 1777.1,796.708 1779.6,800.208 1781,804.5C 1781.83,820.499 1785.5,835.832 1792,850.5C 1794.99,867.476 1799.99,883.809 1807,899.5C 1813.57,927.994 1819.23,956.661 1824,985.5C 1825.99,1019.02 1828.16,1052.52 1830.5,1086C 1829.09,1106.82 1827.93,1127.65 1827,1148.5C 1823.92,1168.82 1820.92,1189.15 1818,1209.5C 1809.72,1239.28 1802.39,1269.28 1796,1299.5C 1792.22,1310.39 1787.89,1321.06 1783,1331.5C 1782,1332.5 1781,1333.5 1780,1334.5C 1776.93,1349.7 1772.27,1364.36 1766,1378.5C 1765.25,1382.9 1764.25,1387.23 1763,1391.5C 1745.88,1427.08 1728.21,1462.41 1710,1497.5C 1709.67,1499.5 1709.33,1501.5 1709,1503.5C 1704.62,1508.21 1700.62,1513.21 1697,1518.5C 1690.84,1530.82 1684.17,1542.82 1677,1554.5C 1666.78,1565.95 1657.78,1578.28 1650,1591.5C 1640.61,1604.25 1630.28,1616.25 1619,1627.5C 1611.84,1639.99 1602.51,1650.66 1591,1659.5C 1590.67,1660.83 1590.33,1662.17 1590,1663.5C 1575.85,1673.83 1562.35,1685 1549.5,1697C 1541.67,1701.42 1534,1706.08 1526.5,1711C 1513.98,1720.76 1501.65,1730.76 1489.5,1741C 1462.65,1757.59 1436.32,1774.92 1410.5,1793C 1395.17,1801.33 1379.83,1809.67 1364.5,1818C 1349.05,1822.59 1334.38,1828.93 1320.5,1837C 1316.57,1838 1312.57,1838.5 1308.5,1838.5C 1299.84,1837.63 1291.17,1837.46 1282.5,1838C 1254.51,1843.83 1227.18,1851.83 1200.5,1862C 1189.4,1862.98 1178.4,1862.48 1167.5,1860.5C 1165.33,1857.49 1163.83,1854.16 1163,1850.5C 1162.9,1842.76 1162.23,1835.09 1161,1827.5C 1156.17,1820.86 1149.67,1818.69 1141.5,1821C 1137.73,1822.44 1134.89,1824.94 1133,1828.5C 1133.05,1835.15 1133.22,1841.82 1133.5,1848.5C 1131.14,1848.34 1128.81,1848.5 1126.5,1849C 1119.62,1858.01 1111.78,1858.84 1103,1851.5C 1098.36,1845.36 1093.52,1839.36 1088.5,1833.5C 1080.86,1828.07 1077.03,1830.07 1077,1839.5C 1076.09,1843.77 1073.59,1845.6 1069.5,1845C 1065.45,1842.59 1061.45,1840.09 1057.5,1837.5C 1050.88,1838.37 1047.04,1842.04 1046,1848.5C 1044.74,1850.61 1042.9,1851.61 1040.5,1851.5C 1040.76,1845.54 1039.59,1839.87 1037,1834.5C 1032.86,1831.17 1028.36,1830.67 1023.5,1833C 1019.23,1837.37 1014.4,1840.87 1009,1843.5C 997.263,1840.29 985.43,1837.45 973.5,1835C 967.03,1834.15 960.697,1834.65 954.5,1836.5C 949.661,1835.28 944.828,1833.94 940,1832.5C 934.999,1833.75 931.166,1836.58 928.5,1841C 925.845,1842.44 923.012,1843.27 920,1843.5C 903.842,1838.47 887.342,1835.63 870.5,1835C 869.109,1837.39 867.109,1839.06 864.5,1840C 855.231,1842.44 846.231,1841.77 837.5,1838C 834.498,1834.78 830.998,1832.28 827,1830.5C 824.929,1834.88 822.763,1839.21 820.5,1843.5C 814.193,1844.66 807.859,1844.83 801.5,1844C 800.167,1842 798.833,1840 797.5,1838C 795.167,1837.33 792.833,1837.33 790.5,1838C 788.275,1839.13 785.942,1839.96 783.5,1840.5C 775.667,1838.2 767.667,1836.7 759.5,1836C 744.5,1831 729.5,1826 714.5,1821C 688.954,1808.73 663.287,1796.73 637.5,1785C 632.884,1782.72 629.217,1779.38 626.5,1775C 618.981,1773.72 611.981,1771.05 605.5,1767C 592.388,1756.56 578.722,1746.89 564.5,1738C 540.924,1714.41 515.591,1693.08 488.5,1674C 478.911,1669.63 470.077,1664.13 462,1657.5C 461.293,1655.92 460.46,1654.42 459.5,1653C 441.448,1639.29 424.281,1624.45 408,1608.5C 396.471,1591.96 383.804,1576.3 370,1561.5C 366.268,1556.09 362.935,1550.43 360,1544.5C 346.193,1529.57 334.86,1512.9 326,1494.5C 306.055,1467.29 289.722,1437.95 277,1406.5C 271.667,1396.5 266.333,1386.5 261,1376.5C 248.594,1341.61 237.594,1306.28 228,1270.5C 227,1268.83 226,1267.17 225,1265.5C 222.202,1250.91 219.868,1236.25 218,1221.5C 215.667,1211.83 213.333,1202.17 211,1192.5C 208.088,1145.33 205.255,1098.16 202.5,1051C 205.482,1019.24 206.982,987.403 207,955.5C 207.363,950.047 208.363,944.714 210,939.5C 214.259,929.132 217.593,918.465 220,907.5C 226.862,891.247 233.529,874.914 240,858.5C 247.088,847.991 254.421,837.658 262,827.5C 275.09,806.993 287.423,785.993 299,764.5C 305.569,757.261 312.735,750.761 320.5,745C 336.051,738.058 351.718,731.391 367.5,725C 405.844,703.174 425.344,670.008 426,625.5C 426.667,605.167 426.667,584.833 426,564.5C 424.078,548.726 421.578,533.059 418.5,517.5C 418.045,507.895 422.378,501.728 431.5,499C 439.5,498.333 447.5,498.333 455.5,499C 466.742,501.515 478.075,503.515 489.5,505C 511.833,505.667 534.167,505.667 556.5,505C 564.268,502.283 571.935,499.283 579.5,496C 590.178,491.98 601.178,490.647 612.5,492C 619.523,493.851 626.523,495.685 633.5,497.5C 635.167,497.333 636.833,497.167 638.5,497C 643.167,494.333 647.833,491.667 652.5,489C 660.833,488.333 669.167,488.333 677.5,489C 684.759,490.628 690.759,494.295 695.5,500C 704.096,503.706 711.263,509.206 717,516.5C 721,524.5 725,532.5 729,540.5C 737.831,549.656 747.664,557.49 758.5,564C 765.167,564.667 771.833,564.667 778.5,564C 784.949,561.609 791.282,558.942 797.5,556C 798.126,555.25 798.626,554.416 799,553.5C 807.738,525.883 814.904,497.883 820.5,469.5C 817.813,469.336 815.146,469.503 812.5,470C 807.898,474.037 804.398,478.871 802,484.5C 799.009,500.777 796.343,517.11 794,533.5C 792.203,540.558 790.203,547.558 788,554.5C 787.363,556.303 786.197,557.636 784.5,558.5C 780.375,555.218 775.708,553.051 770.5,552C 766.452,547.896 761.952,544.396 757,541.5C 755.118,537.012 753.785,532.345 753,527.5C 745.186,516.39 741.186,504.057 741,490.5C 741.707,488.919 742.54,487.419 743.5,486C 751.242,485.309 758.076,482.476 764,477.5C 765.727,473.1 765.894,468.6 764.5,464C 764.951,460.08 765.784,456.247 767,452.5C 773.651,437.902 780.318,423.236 787,408.5C 791.351,400.479 796.851,393.312 803.5,387C 809.792,386.68 815.458,384.68 820.5,381C 828.418,373.086 835.585,364.586 842,355.5C 848,341.5 854,327.5 860,313.5C 861.141,311.391 862.641,309.558 864.5,308C 865.908,307.685 867.241,308.018 868.5,309C 872.833,312 877.167,315 881.5,318C 884.833,318.667 888.167,318.667 891.5,318C 901.012,308.966 910.512,299.799 920,290.5C 925.723,283.109 931.056,275.443 936,267.5C 942.492,259.671 950.659,254.505 960.5,252C 970.104,251.303 979.437,249.803 988.5,247.5 Z M 1367.5,704.5 C 1432.02,705.165 1478.18,734.498 1506,792.5C 1522.3,832.378 1525.63,873.378 1516,915.5C 1499.68,985.012 1458.51,1033.18 1392.5,1060C 1367.77,1068.05 1342.44,1070.72 1316.5,1068C 1307.75,1067.37 1299.08,1066.21 1290.5,1064.5C 1315.91,944.44 1341.58,824.44 1367.5,704.5 Z"/></g>
<g><path style="opacity:0.966" fill="#000000" d="M 953.5,726.5 C 945.277,731.877 937.444,737.877 930,744.5C 925.514,759.994 915.347,766.161 899.5,763C 888.473,759.455 884.306,751.955 887,740.5C 889.571,729.261 895.405,720.094 904.5,713C 923.729,698.721 945.063,688.721 968.5,683C 972.015,674.802 976.182,666.968 981,659.5C 984.665,654.412 989.498,652.245 995.5,653C 996.931,653.465 998.097,654.299 999,655.5C 1002.68,662.046 1004.85,669.046 1005.5,676.5C 1032.14,672.803 1058.47,674.303 1084.5,681C 1122.26,692.761 1149.43,716.594 1166,752.5C 1176.72,776.696 1182.72,802.03 1184,828.5C 1189.26,889.336 1174.6,944.67 1140,994.5C 1103.62,1041.61 1055.45,1067.11 995.5,1071C 987.507,1071.5 979.507,1071.67 971.5,1071.5C 972.004,1166.52 990.504,1257.85 1027,1345.5C 1052.56,1407.38 1091.39,1459.21 1143.5,1501C 1213.18,1551.08 1290.85,1570.75 1376.5,1560C 1431.16,1551.33 1479.82,1529.66 1522.5,1495C 1541.5,1478.67 1560.5,1462.33 1579.5,1446C 1596,1442.5 1602.5,1449 1599,1465.5C 1598.19,1468.45 1596.86,1471.11 1595,1473.5C 1558.48,1512.7 1516.32,1544.2 1468.5,1568C 1343.88,1617.92 1227.88,1602.92 1120.5,1523C 1062.96,1476.78 1019.79,1419.61 991,1351.5C 948.114,1247.85 930.448,1140.19 938,1028.5C 939.227,1026.27 941.061,1024.77 943.5,1024C 947.167,1023.33 950.833,1023.33 954.5,1024C 958.783,1026.62 962.783,1029.62 966.5,1033C 999.302,1040.52 1030.3,1035.86 1059.5,1019C 1107.38,989.478 1137.22,946.978 1149,891.5C 1156.31,854.729 1154.64,818.396 1144,782.5C 1118.89,713.522 1070.39,688.022 998.5,706C 995.484,706.22 992.984,707.387 991,709.5C 945.872,929.473 900.872,1149.47 856,1369.5C 853.51,1376.99 848.343,1381.16 840.5,1382C 832.939,1383.53 826.106,1382.03 820,1377.5C 818.445,1372.62 818.112,1367.62 819,1362.5C 862.495,1150.19 907.328,938.192 953.5,726.5 Z"/></g>
<g><path style="opacity:0.966" fill="#000000" d="M 1355.5,659.5 C 1365.8,656.806 1372.14,660.473 1374.5,670.5C 1440.87,668.59 1491.37,695.59 1526,751.5C 1548.88,790.212 1557.54,831.878 1552,876.5C 1549.39,934.688 1530.06,986.355 1494,1031.5C 1454.56,1074.97 1405.4,1098.8 1346.5,1103C 1324.95,1105.59 1303.62,1104.43 1282.5,1099.5C 1263.54,1188.33 1245.38,1277.33 1228,1366.5C 1223.15,1380.83 1213.65,1386 1199.5,1382C 1196.06,1378.18 1194.06,1373.68 1193.5,1368.5C 1211.22,1276.25 1230.22,1184.25 1250.5,1092.5C 1250.18,1091.35 1249.52,1090.52 1248.5,1090C 1230.16,1084.5 1212.83,1076.83 1196.5,1067C 1186.59,1058.99 1185.92,1050.32 1194.5,1041C 1198.95,1037.8 1203.95,1036.3 1209.5,1036.5C 1215.66,1036.83 1221.66,1038 1227.5,1040C 1237.62,1043.87 1247.62,1048.04 1257.5,1052.5C 1258.09,1052.29 1258.59,1051.96 1259,1051.5C 1283.04,938.303 1307.21,825.136 1331.5,712C 1331.17,711.5 1330.83,711 1330.5,710.5C 1310.4,716.772 1295.23,729.105 1285,747.5C 1277.66,755.876 1268.83,758.043 1258.5,754C 1253,747.812 1252.17,740.978 1256,733.5C 1275.43,700.336 1304.26,680.336 1342.5,673.5C 1345.5,667.504 1349.83,662.838 1355.5,659.5 Z M 1367.5,704.5 C 1341.58,824.44 1315.91,944.44 1290.5,1064.5C 1299.08,1066.21 1307.75,1067.37 1316.5,1068C 1342.44,1070.72 1367.77,1068.05 1392.5,1060C 1458.51,1033.18 1499.68,985.012 1516,915.5C 1525.63,873.378 1522.3,832.378 1506,792.5C 1478.18,734.498 1432.02,705.165 1367.5,704.5 Z"/></g>
<g><path style="opacity:0.966" fill="#000000" d="M 698.5,670.5 C 757.717,665.294 798.55,689.961 821,744.5C 824.672,754.017 827.839,763.684 830.5,773.5C 828.953,785.266 822.287,791.599 810.5,792.5C 805.179,793.257 801.346,791.257 799,786.5C 795.222,758.433 782.722,735.267 761.5,717C 737.755,701.38 712.421,698.047 685.5,707C 669.158,715.35 657.658,728.183 651,745.5C 644.385,766.403 642.718,787.737 646,809.5C 652.322,850.134 663.322,889.468 679,927.5C 696.943,969.719 714.609,1012.05 732,1054.5C 750.746,1101.4 761.246,1150.07 763.5,1200.5C 762.651,1259.33 741.651,1309.5 700.5,1351C 673.566,1373.1 642.566,1385.43 607.5,1388C 557.543,1393.14 510.543,1383.81 466.5,1360C 414.793,1329.36 392.627,1283.86 400,1223.5C 404.394,1178.59 422.394,1140.26 454,1108.5C 462.232,1099.6 471.066,1091.43 480.5,1084C 487.67,1079.79 495.003,1079.46 502.5,1083C 507.592,1089.94 507.759,1097.11 503,1104.5C 485.162,1120.33 469.495,1138 456,1157.5C 438.244,1189.37 431.911,1223.37 437,1259.5C 441.876,1286.09 455.042,1307.59 476.5,1324C 508.982,1345.96 544.982,1356.46 584.5,1355.5C 626.179,1356.07 660.679,1340.74 688,1309.5C 714.258,1276.73 727.425,1239.23 727.5,1197C 725.925,1172.45 721.758,1148.28 715,1124.5C 709.737,1106.71 704.07,1089.04 698,1071.5C 681.449,1028.51 664.115,985.846 646,943.5C 631.316,907.115 619.65,869.782 611,831.5C 602.804,786.145 611.138,744.145 636,705.5C 651.968,685.1 672.802,673.434 698.5,670.5 Z"/></g>
</svg>
