<svg xmlns="http://www.w3.org/2000/svg" width="2000" height="2250" style="shape-rendering:geometricPrecision;text-rendering:geometricPrecision;image-rendering:optimizeQuality;fill-rule:evenodd;clip-rule:evenodd"><path style="opacity:.991" fill="#fefffe" d="M1999.5 1091.5v10c-1.51 2.6-3.85 3.93-7 4-.11 2.28-.94 4.28-2.5 6-5 4.33-10 8.67-15 13a15.295 15.295 0 0 0-3 6c-4.33 17.34-8.67 34.67-13 52-.35 16.14-2.02 32.14-5 48a914.504 914.504 0 0 0-13.5 58c.03 1.53.7 2.7 2 3.5 2.55 2.44 5.55 4.11 9 5l21.5 21.5c1.2 2.18 1.7 4.51 1.5 7-3.74 1.86-7.74 3.19-12 4a114.47 114.47 0 0 0-20-10.5c-3.82-1.63-7.66-1.79-11.5-.5-2.2 9.93-5.2 19.59-9 29-1.44 6.31-2.77 12.65-4 19a699.004 699.004 0 0 1-43 97c-.54 3.03-1.21 6.03-2 9-19.01 38.37-38.01 76.7-57 115-7.35 13.19-16.52 25.02-27.5 35.5-1.33.67-2.67 1.33-4 2-27.95 26.66-54.29 54.66-79 84a294.296 294.296 0 0 0-21 20 70.105 70.105 0 0 0-11.5 7.5 518.461 518.461 0 0 0-18 25c.44 5.95 1.61 11.78 3.5 17.5-1.06 9.04-6.06 12.37-15 10-3.5-2.58-7.16-4.92-11-7-2-.67-4-.67-6 0a433.629 433.629 0 0 0-29 20c-7.54 2.95-14.87 6.29-22 10a215.825 215.825 0 0 1-19 16c-23.5 15.92-47.16 31.58-71 47l-1.5 1.5c1.79 10.81-2.55 17.14-13 19l-15-3c-6.49.91-12.99 1.74-19.5 2.5a431.286 431.286 0 0 1-36 16c-4.51 4.84-9.84 8.5-16 11-12.7 4.67-25.36 9.33-38 14-5.59 1.63-11.26 2.96-17 4a891.094 891.094 0 0 1-43 28c-4.01 5.04-8.01 10.04-12 15-5.56 1.74-11.23 3.07-17 4-11.17 6.51-14.67 16.01-10.5 28.5 6.03 8.73 5.87 17.23-.5 25.5-5.31 3.21-10.65 3.21-16 0-8.59-9-14.76-19.5-18.5-31.5-7.48-11.52-17.98-16.69-31.5-15.5-7.59 3.46-14.92 7.46-22 12-2.93.89-5.93 1.39-9 1.5a61.7 61.7 0 0 0-16-.5c-4.85 3.89-6.01 8.73-3.5 14.5 2.68 2.03 4.35 4.69 5 8 3.66 36.06-9.34 44.06-39 24-.33-2-.67-4-1-6-2.39-5.06-4.56-10.22-6.5-15.5-9.35 1.26-18.35 3.92-27 8-5 .67-10 .67-15 0a11.42 11.42 0 0 1-4.5-3.5c-3.05-11.72-10.55-18.55-22.5-20.5-20.093-1.77-39.093-7.1-57-16-13.031-4.11-26.364-5.44-40-4a441.096 441.096 0 0 1-34 4c-8.032 2.69-14.698 7.35-20 14-3.488 3.31-6.655 3.14-9.5-.5-3.2-4.61-5.367-9.61-6.5-15-.667-.33-1.333-.67-2-1-3.818 2.8-7.818 3.3-12 1.5-11.739-4.4-19.239-12.57-22.5-24.5-2.264-2.93-5.098-5.1-8.5-6.5a583.204 583.204 0 0 0-30-4c-2.105-1.19-3.772-2.86-5-5-4.576-1.48-9.243-1.81-14-1 6.336 8.68 11.336 18.01 15 28-.667 1.33-1.333 2.67-2 4a69.494 69.494 0 0 1-18 3c-.833.83-1.667 1.67-2.5 2.5l-1 22c-1.872 3.77-4.872 6.1-9 7a981.707 981.707 0 0 1-3.5 7.5c.403 1.47 1.07 2.81 2 4 11.262 7.98 23.596 13.64 37 17 4.615 6.51 6.782 13.67 6.5 21.5-1.333 2.67-2.667 5.33-4 8-7.167 7.17-14.333 14.33-21.5 21.5a151.404 151.404 0 0 0-20 12c-7.872 2.65-15.206 1.65-22-3-2.384-2.38-3.884-5.21-4.5-8.5a129.278 129.278 0 0 1-1-30 486.32 486.32 0 0 0 6-25l-1.5-1.5c-7.376-.25-14.709-.92-22-2-5.887-.58-8.887-3.75-9-9.5 1.563-7.19 3.23-14.36 5-21.5-1.498-4.26-4.498-6.93-9-8-4.667-.33-9.333-.67-14-1a32.448 32.448 0 0 0-10-4 75.474 75.474 0 0 1 17-6.5c-1.699-14.74-8.532-26.4-20.5-35a59.386 59.386 0 0 1-5-19c-4.159-8.83-9.659-16.67-16.5-23.5a76.264 76.264 0 0 0-13-5 281.397 281.397 0 0 1-41-9 400.277 400.277 0 0 0-30-17c-6.293-6.48-13.626-11.48-22-15l-42-36c-13.794-15.46-29.127-29.13-46-41-13-13.67-26-27.33-39-41l-13-9c-7.647-1.18-14.98-.18-22 3a327.443 327.443 0 0 1-26.5 13.5c-.5-.17-1-.33-1.5-.5a13.892 13.892 0 0 0 3-4c-1.938-5.6-5.604-9.6-11-12-27.466-.62-54.8 1.05-82 5a124.676 124.676 0 0 0-17 5 528.843 528.843 0 0 0 7 16.5 4.486 4.486 0 0 1-2 1.5 75.176 75.176 0 0 1-21 3 101.447 101.447 0 0 0-17 8.5c-2.725-1.86-5.725-2.86-9-3-6.009 1.67-12.009 3.34-18 5 4.272-5.79 9.272-11.29 15-16.5a85.267 85.267 0 0 0 11-6c-.634-4.29-2.967-7.12-7-8.5l-3 1.5c-4.699 5.03-9.699 9.7-15 14-7.5.5-11-3-10.5-10.5a31.057 31.057 0 0 0 4-8 65.31 65.31 0 0 0 11.5-15.5c-4-4.67-8-9.33-12-14-17.314-10.98-30.814-25.48-40.5-43.5-6.726-8.4-14.893-14.9-24.5-19.5-5.333-5.33-10.667-10.67-16-16-9.887 4.61-19.887 9.27-30 14-3 3.67-6 7.33-9 11-20.798 5.22-24.131-.12-10-16 1.778-.7 3.612-1.2 5.5-1.5 2.154.75 4.32.92 6.5.5 6.957-10.62 15.624-19.62 26-27a359.267 359.267 0 0 0-16.5-27.5 89.675 89.675 0 0 0-3.5-16.5c-1-.67-2-.67-3 0a41.198 41.198 0 0 1-9 6c-13.014 1.68-16.514-3.16-10.5-14.5a25.544 25.544 0 0 1 9.5-6.5c3.618-5.57 5.285-11.73 5-18.5a75.372 75.372 0 0 1-1.5-17c.667-1.33 1.333-2.67 2-4 13.264-9.53 22.93-21.87 29-37a206.027 206.027 0 0 0 29-30 25.944 25.944 0 0 0 3.5-9c6.262.63 12.262-.21 18-2.5 5.557-5.95 9.39-12.79 11.5-20.5 5.259-3.34 8.092-8.18 8.5-14.5-2.089-9.52-4.256-19.02-6.5-28.5a39.65 39.65 0 0 0-8-7c-3.333-4.67-3.333-9.33 0-14 8.27-4.86 13.937-11.86 17-21a148.335 148.335 0 0 0 2.5-17 1205.713 1205.713 0 0 0-17.5-82 301.487 301.487 0 0 0-2-30c-.557-3.67-1.89-7.01-4-10-.116-11.37-4.283-20.87-12.5-28.5a1338.326 1338.326 0 0 0-44-21.5 37.878 37.878 0 0 0-6.5 4 399.276 399.276 0 0 1-19 28c-5.56 15.58-16.394 21.75-32.5 18.5-4.311-2.51-7.311-6.01-9-10.5v-8a572.243 572.243 0 0 0 16.5-22 45.324 45.324 0 0 1 12-10 171.512 171.512 0 0 0 12-19 46.33 46.33 0 0 0 1-17c-7.524-30.76-8.524-61.76-3-93a198.202 198.202 0 0 1 11-35 109.643 109.643 0 0 0 19-24 572.004 572.004 0 0 1 10-25 531.027 531.027 0 0 1 8-31c.227-3.824.06-7.658-.5-11.5a36.54 36.54 0 0 1 1.5-9.5 512.16 512.16 0 0 0 25-63 52.02 52.02 0 0 1 10-14 596.334 596.334 0 0 0 20-44 81.901 81.901 0 0 1 10-14 98.722 98.722 0 0 1 7-18l15-24a280.631 280.631 0 0 0 8-32l8-12a35.063 35.063 0 0 0 1-15 231.002 231.002 0 0 0-9-33c-3.289-13.337-3.289-26.67 0-40 2.403-1.805 4.07-4.138 5-7 3.82-15.499 12.654-27.332 26.5-35.5 19.407-8.912 39.74-14.579 61-17 11.126-3.637 19.626-10.47 25.5-20.5 6.43-4.429 11.43-10.095 15-17a1590.428 1590.428 0 0 0 44-51c9.271-10.277 19.438-19.443 30.5-27.5a404.904 404.904 0 0 0 40-43 31.317 31.317 0 0 0 8-5 940.18 940.18 0 0 1 37-36 157.159 157.159 0 0 1 25-15l6.5-6.5a273.926 273.926 0 0 0 15-43 133.182 133.182 0 0 1 5-12 52.644 52.644 0 0 0 13.5-3.5 55.747 55.747 0 0 0-5.5-4.5c-.667-2-.667-4 0-6a100.586 100.586 0 0 1 10.5-18.5c-11.346-1.941-13.846-7.774-7.5-17.5 7.446-4.508 14.112-3.508 20 3a18.991 18.991 0 0 1 1.5 8 38.74 38.74 0 0 0 16-3.5 229.717 229.717 0 0 1 32-1c12.03 2.873 24.03 5.873 36 9 3 .667 6 .667 9 0l56-21c20.99-4.435 41.99-9.101 63-14a324.79 324.79 0 0 0 32-12 1022.104 1022.104 0 0 1 36-7l15-7c3.858-6.279 9.524-10.113 17-11.5a182.408 182.408 0 0 0 12.5 4c26.214-3.927 52.548-4.593 79-2a118.349 118.349 0 0 1 23.5-6.5c20.33-.667 40.67-.667 61 0a178.942 178.942 0 0 1 41 9c9.81.386 19.48 1.72 29 4 23.68.936 47.35 2.27 71 4 15.19 5.476 30.86 7.809 47 7a40.19 40.19 0 0 1 11 6 281.859 281.859 0 0 1 32 7c6.05.26 12.05.927 18 2 13.54 9.138 28.54 13.471 45 13a72.759 72.759 0 0 1 14 8c7.08 2.47 14.08 5.137 21 8 19.73 1.8 38.07 7.8 55 18 2.7 3.038 5.7 5.705 9 8a429.1 429.1 0 0 1 25 12c14.41 12.387 30.74 21.387 49 27 16.1 14.382 34.1 25.716 54 34a537.75 537.75 0 0 0 31 24c9.69 11.325 21.02 20.492 34 27.5 1.54 5.714 4.54 10.547 9 14.5 24.94 14.585 47.27 32.585 67 54 7.66 1.996 14.66 5.33 21 10 14.83 15.5 29.67 31 44.5 46.5a423.748 423.748 0 0 1 16 37 571.791 571.791 0 0 0 21 40c.33 1.667.67 3.333 1 5a479.387 479.387 0 0 0 24 34 814.437 814.437 0 0 0 30 59 6045.038 6045.038 0 0 0 24 63c2.7 5.353 5.37 10.686 8 16 4.4 14.868 9.4 29.535 15 44a411.174 411.174 0 0 0 18 62 79.804 79.804 0 0 1 12 17c1.65 8.172 1.48 16.338-.5 24.5.73 8.965 2.23 17.798 4.5 26.5.33 6 .67 12 1 18 5.37 20.657 7.71 41.657 7 63 1.59 12.17 6.59 22.5 15 31 5.5 9.5 12.5 17.84 21 25 5.82 9.19 6.82 18.86 3 29-1.98 8.47-.14 15.8 5.5 22zm-1458-889h9a32.462 32.462 0 0 1-.5 8 3.647 3.647 0 0 1-1.5 1c.098-1.116-.402-2.116-1.5-3-4.087 1.139-7.587.139-10.5-3 1.86-.825 3.526-1.825 5-3zm22 10c4.677.335 9.344.835 14 1.5-5.705 4.275-11.705 4.608-18 1 1.566-.608 2.9-1.442 4-2.5zm425 35a200.4 200.4 0 0 1 20 .5c5.02.673 9.69 2.34 14 5a192.815 192.815 0 0 1 16.5 24.5 228.664 228.664 0 0 0 17.5 18.5c14.84 9.191 29.17 8.524 43-2 10.33-9.667 20.67-19.333 31-29 9.58-6.249 19.91-8.249 31-6 3.08.786 5.25 2.619 6.5 5.5 1.4 4.998 1.9 9.998 1.5 15a683.394 683.394 0 0 1 63 53.5 462 462 0 0 1 29 22 397.76 397.76 0 0 0 60 26c3.8.772 7.63 1.272 11.5 1.5a567.708 567.708 0 0 1 33-4c17.62 2.006 35.12 4.173 52.5 6.5a124.053 124.053 0 0 1 17 5c15.33 7 30.67 14 46 21a343.765 343.765 0 0 0 30 20l15 13c28.31 14.921 53.48 34.087 75.5 57.5a243.024 243.024 0 0 1 16 21 267.164 267.164 0 0 1 20 19c13.33 17.333 26.67 34.667 40 52 4.75 10.506 10.75 20.172 18 29a510.615 510.615 0 0 1 27 45 30.35 30.35 0 0 1 0 11 326.561 326.561 0 0 0-9 34c-6.16 23.236-.32 42.736 17.5 58.5 12.79 9.774 26.79 17.44 42 23 3.6 2.708 6.1 6.208 7.5 10.5.83 15.999 4.5 31.332 11 46a208.213 208.213 0 0 0 15 49 1398.074 1398.074 0 0 1 17 86c1.99 33.52 4.16 67.02 6.5 100.5-1.41 20.82-2.57 41.65-3.5 62.5a7791.08 7791.08 0 0 0-9 61c-8.28 29.78-15.61 59.78-22 90a332.237 332.237 0 0 1-13 32l-3 3c-3.07 15.2-7.73 29.86-14 44-.75 4.4-1.75 8.73-3 13a3921.02 3921.02 0 0 1-53 106c-.33 2-.67 4-1 6a128.87 128.87 0 0 0-12 15 473.816 473.816 0 0 1-20 36 232.565 232.565 0 0 0-27 37 312.498 312.498 0 0 1-31 36c-7.16 12.49-16.49 23.16-28 32-.33 1.33-.67 2.67-1 4a435.694 435.694 0 0 0-40.5 33.5c-7.83 4.42-15.5 9.08-23 14-12.52 9.76-24.85 19.76-37 30a1646.863 1646.863 0 0 0-79 52c-15.33 8.33-30.67 16.67-46 25a201.296 201.296 0 0 0-44 19c-3.93 1-7.93 1.5-12 1.5-8.66-.87-17.33-1.04-26-.5a537.626 537.626 0 0 0-82 24c-11.1.98-22.1.48-33-1.5a27.204 27.204 0 0 1-4.5-10c-.1-7.74-.77-15.41-2-23-4.83-6.64-11.33-8.81-19.5-6.5-3.77 1.44-6.61 3.94-8.5 7.5.05 6.65.22 13.32.5 20-2.36-.16-4.69 0-7 .5-6.88 9.01-14.72 9.84-23.5 2.5a377.72 377.72 0 0 0-14.5-18c-7.64-5.43-11.47-3.43-11.5 6-.91 4.27-3.41 6.1-7.5 5.5-4.05-2.41-8.05-4.91-12-7.5-6.62.87-10.46 4.54-11.5 11-1.26 2.11-3.1 3.11-5.5 3 .26-5.96-.91-11.63-3.5-17-4.14-3.33-8.64-3.83-13.5-1.5-4.27 4.37-9.1 7.87-14.5 10.5a566.65 566.65 0 0 0-35.5-8.5c-6.47-.85-12.803-.35-19 1.5a350.808 350.808 0 0 1-14.5-4c-5.001 1.25-8.834 4.08-11.5 8.5a20.978 20.978 0 0 1-8.5 2.5c-16.158-5.03-32.658-7.87-49.5-8.5-1.391 2.39-3.391 4.06-6 5-9.269 2.44-18.269 1.77-27-2a32.03 32.03 0 0 0-10.5-7.5 332.226 332.226 0 0 1-6.5 13 60.863 60.863 0 0 1-19 .5l-4-6a12.44 12.44 0 0 0-7 0 29.415 29.415 0 0 1-7 2.5 121.93 121.93 0 0 0-24-4.5l-45-15a4073.422 4073.422 0 0 0-77-36c-4.616-2.28-8.283-5.62-11-10-7.519-1.28-14.519-3.95-21-8a441.321 441.321 0 0 0-41-29c-23.576-23.59-48.909-44.92-76-64a120.035 120.035 0 0 1-26.5-16.5 29.612 29.612 0 0 0-2.5-4.5 541.813 541.813 0 0 1-51.5-44.5 425.835 425.835 0 0 0-38-47 136.581 136.581 0 0 1-10-17c-13.807-14.93-25.14-31.6-34-50-19.945-27.21-36.278-56.55-49-88l-16-30a1393.468 1393.468 0 0 1-33-106c-1-1.67-2-3.33-3-5a701.4 701.4 0 0 1-7-44c-2.333-9.67-4.667-19.33-7-29-2.912-47.17-5.745-94.34-8.5-141.5a1027.31 1027.31 0 0 0 4.5-95.5 68.39 68.39 0 0 1 3-16 192.92 192.92 0 0 0 10-32 2208.123 2208.123 0 0 0 20-49 798.164 798.164 0 0 1 22-31 986.68 986.68 0 0 0 37-63 148.296 148.296 0 0 1 21.5-19.5 1455.732 1455.732 0 0 1 47-20c38.344-21.826 57.844-54.992 58.5-99.5a930.035 930.035 0 0 0 0-61 642.605 642.605 0 0 0-7.5-47c-.455-9.605 3.878-15.772 13-18.5 8-.667 16-.667 24 0a380.009 380.009 0 0 0 34 6c22.333.667 44.667.667 67 0a338.406 338.406 0 0 0 23-9c10.678-4.02 21.678-5.353 33-4a6779.327 6779.327 0 0 0 21 5.5l5-.5 14-8a156.422 156.422 0 0 1 25 0c7.259 1.628 13.259 5.295 18 11 8.596 3.706 15.763 9.206 21.5 16.5l12 24c8.831 9.156 18.664 16.99 29.5 23.5a100.2 100.2 0 0 0 20 0 237.226 237.226 0 0 0 19-8 9.454 9.454 0 0 0 1.5-2.5 775.568 775.568 0 0 0 21.5-84 32.462 32.462 0 0 0-8 .5 39.804 39.804 0 0 0-10.5 14.5 1249.35 1249.35 0 0 0-8 49 376.637 376.637 0 0 1-6 21c-.637 1.803-1.803 3.136-3.5 4-4.125-3.282-8.792-5.449-14-6.5a64.915 64.915 0 0 0-13.5-10.5 61.512 61.512 0 0 1-4-14c-7.814-11.11-11.814-23.443-12-37a29.517 29.517 0 0 1 2.5-4.5c7.742-.691 14.576-3.524 20.5-8.5 1.727-4.4 1.894-8.9.5-13.5a59.011 59.011 0 0 1 2.5-11.5 26958.807 26958.807 0 0 0 20-44 86.038 86.038 0 0 1 16.5-21.5c6.292-.32 11.958-2.32 17-6a195.066 195.066 0 0 0 21.5-25.5l18-42a18.778 18.778 0 0 1 4.5-5.5c1.408-.315 2.741.018 4 1l13 9c3.333.667 6.667.667 10 0a2521.346 2521.346 0 0 0 28.5-27.5 274.258 274.258 0 0 0 16-23c6.492-7.829 14.659-12.995 24.5-15.5 9.604-.697 18.937-2.197 28-4.5zm379 457c64.52.665 110.68 29.998 138.5 88 16.3 39.878 19.63 80.878 10 123-16.32 69.512-57.49 117.68-123.5 144.5-24.73 8.05-50.06 10.72-76 8-8.75-.63-17.42-1.79-26-3.5 25.41-120.06 51.08-240.06 77-360z"/><path style="opacity:.966" fill="#fefffe" d="M953.5 726.5a199.937 199.937 0 0 0-23.5 18c-4.486 15.494-14.653 21.661-30.5 18.5-11.027-3.545-15.194-11.045-12.5-22.5 2.571-11.239 8.405-20.406 17.5-27.5 19.229-14.279 40.563-24.279 64-30a158.441 158.441 0 0 1 12.5-23.5c3.665-5.088 8.498-7.255 14.5-6.5a6.978 6.978 0 0 1 3.5 2.5c3.68 6.546 5.85 13.546 6.5 21 26.64-3.697 52.97-2.197 79 4.5 37.76 11.761 64.93 35.594 81.5 71.5 10.72 24.196 16.72 49.53 18 76 5.26 60.836-9.4 116.17-44 166-36.38 47.11-84.55 72.61-144.5 76.5-7.993.5-15.993.67-24 .5.504 95.02 19.004 186.35 55.5 274 25.56 61.88 64.39 113.71 116.5 155.5 69.68 50.08 147.35 69.75 233 59 54.66-8.67 103.32-30.34 146-65 19-16.33 38-32.67 57-49 16.5-3.5 23 3 19.5 19.5a22.64 22.64 0 0 1-4 8c-36.52 39.2-78.68 70.7-126.5 94.5-124.62 49.92-240.62 34.92-348-45-57.54-46.22-100.71-103.39-129.5-171.5-42.886-103.65-60.552-211.31-53-323 1.227-2.23 3.061-3.73 5.5-4.5a30.35 30.35 0 0 1 11 0 79.325 79.325 0 0 1 12 9c32.802 7.52 63.8 2.86 93-14 47.88-29.522 77.72-72.022 89.5-127.5 7.31-36.771 5.64-73.104-5-109-25.11-68.978-73.61-94.478-145.5-76.5-3.016.22-5.516 1.387-7.5 3.5a576879.987 576879.987 0 0 0-135 660c-2.49 7.49-7.657 11.66-15.5 12.5-7.561 1.53-14.394.03-20.5-4.5-1.555-4.88-1.888-9.88-1-15a51280.158 51280.158 0 0 1 134.5-636z"/><path style="opacity:.966" fill="#fefffe" d="M1355.5 659.5c10.3-2.694 16.64.973 19 11 66.37-1.91 116.87 25.09 151.5 81 22.88 38.712 31.54 80.378 26 125-2.61 58.188-21.94 109.855-58 155-39.44 43.47-88.6 67.3-147.5 71.5-21.55 2.59-42.88 1.43-64-3.5-18.96 88.83-37.12 177.83-54.5 267-4.85 14.33-14.35 19.5-28.5 15.5-3.44-3.82-5.44-8.32-6-13.5a10151.09 10151.09 0 0 1 57-276c-.32-1.15-.98-1.98-2-2.5a226.679 226.679 0 0 1-52-23c-9.91-8.01-10.58-16.68-2-26 4.45-3.2 9.45-4.7 15-4.5 6.16.33 12.16 1.5 18 3.5 10.12 3.87 20.12 8.04 30 12.5.59-.21 1.09-.54 1.5-1a156174.22 156174.22 0 0 1 72.5-339.5c-.33-.5-.67-1-1-1.5-20.1 6.272-35.27 18.605-45.5 37-7.34 8.376-16.17 10.543-26.5 6.5-5.5-6.188-6.33-13.022-2.5-20.5 19.43-33.164 48.26-53.164 86.5-60 3-5.996 7.33-10.662 13-14zm12 45a86244.313 86244.313 0 0 0-77 360c8.58 1.71 17.25 2.87 26 3.5 25.94 2.72 51.27.05 76-8 66.01-26.82 107.18-74.988 123.5-144.5 9.63-42.122 6.3-83.122-10-123-27.82-58.002-73.98-87.335-138.5-88zM698.5 670.5c59.217-5.206 100.05 19.461 122.5 74a294.754 294.754 0 0 1 9.5 29c-1.547 11.766-8.213 18.099-20 19-5.321.757-9.154-1.243-11.5-6-3.778-28.067-16.278-51.233-37.5-69.5-23.745-15.62-49.079-18.953-76-10-16.342 8.35-27.842 21.183-34.5 38.5-6.615 20.903-8.282 42.237-5 64 6.322 40.634 17.322 79.968 33 118a10549.618 10549.618 0 0 1 53 127c18.746 46.9 29.246 95.57 31.5 146-.849 58.83-21.849 109-63 150.5-26.934 22.1-57.934 34.43-93 37-49.957 5.14-96.957-4.19-141-28-51.707-30.64-73.873-76.14-66.5-136.5 4.394-44.91 22.394-83.24 54-115a229.422 229.422 0 0 1 26.5-24.5c7.17-4.21 14.503-4.54 22-1 5.092 6.94 5.259 14.11.5 21.5-17.838 15.83-33.505 33.5-47 53-17.756 31.87-24.089 65.87-19 102 4.876 26.59 18.042 48.09 39.5 64.5 32.482 21.96 68.482 32.46 108 31.5 41.679.57 76.179-14.76 103.5-46 26.258-32.77 39.425-70.27 39.5-112.5-1.575-24.55-5.742-48.72-12.5-72.5a1222.546 1222.546 0 0 0-17-53 3762.136 3762.136 0 0 0-52-128 726.807 726.807 0 0 1-35-112c-8.196-45.355.138-87.355 25-126 15.968-20.4 36.802-32.066 62.5-35z"/></svg>