<?xml version="1.0" encoding="UTF-8"?>
<!DOCTYPE svg PUBLIC "-//W3C//DTD SVG 1.1//EN" "http://www.w3.org/Graphics/SVG/1.1/DTD/svg11.dtd">
<svg xmlns="http://www.w3.org/2000/svg" version="1.1" width="2000px" height="1500px" style="shape-rendering:geometricPrecision; text-rendering:geometricPrecision; image-rendering:optimizeQuality; fill-rule:evenodd; clip-rule:evenodd" xmlns:xlink="http://www.w3.org/1999/xlink">
<g><path style="opacity:1" fill="#000000" d="M -0.5,-0.5 C 666.167,-0.5 1332.83,-0.5 1999.5,-0.5C 1999.5,499.5 1999.5,999.5 1999.5,1499.5C 1332.83,1499.5 666.167,1499.5 -0.5,1499.5C -0.5,999.5 -0.5,499.5 -0.5,-0.5 Z"/></g>
<g><path style="opacity:1" fill="#fdfdfd" d="M 989.5,308.5 C 1000.51,308.333 1011.51,308.5 1022.5,309C 1042.16,313.615 1062.16,315.949 1082.5,316C 1089.55,318.756 1096.88,320.09 1104.5,320C 1112.9,323.015 1121.57,325.015 1130.5,326C 1136.79,330.324 1143.79,332.324 1151.5,332C 1156.84,335.231 1162.51,337.898 1168.5,340C 1178.08,340.411 1186.41,343.744 1193.5,350C 1201.49,353.325 1208.83,357.659 1215.5,363C 1224.47,365.963 1232.47,370.63 1239.5,377C 1243.52,379.034 1247.52,381.034 1251.5,383C 1260.98,390.31 1270.31,397.81 1279.5,405.5C 1280.43,407.766 1281.77,409.766 1283.5,411.5C 1294.18,418.007 1303.85,425.84 1312.5,435C 1315.83,436.667 1319.17,438.333 1322.5,440C 1329,446.5 1335.5,453 1342,459.5C 1347.61,472.338 1353.61,485.005 1360,497.5C 1370.2,511.892 1378.87,527.226 1386,543.5C 1396.78,568.847 1405.78,594.847 1413,621.5C 1414.67,623.833 1416.33,626.167 1418,628.5C 1418.33,634.833 1418.67,641.167 1419,647.5C 1422.09,662.685 1424.09,678.018 1425,693.5C 1426,695.5 1427,697.5 1428,699.5C 1432.71,704.543 1437.05,709.877 1441,715.5C 1441.5,719.514 1441.33,723.514 1440.5,727.5C 1440.29,730.229 1441.13,732.562 1443,734.5C 1443.67,736.167 1443.67,737.833 1443,739.5C 1439,743.5 1435,747.5 1431,751.5C 1429.16,759.21 1427.16,766.876 1425,774.5C 1424.69,781.868 1424.02,789.201 1423,796.5C 1419.89,805.28 1418.22,814.28 1418,823.5C 1423.32,827.649 1428.15,832.315 1432.5,837.5C 1431.07,838.935 1429.4,839.935 1427.5,840.5C 1422.78,837.816 1417.78,836.149 1412.5,835.5C 1409.52,849.939 1405.02,863.939 1399,877.5C 1386.6,903.976 1373.93,930.309 1361,956.5C 1358.67,959.833 1356.33,963.167 1354,966.5C 1345.03,974.469 1336.36,982.803 1328,991.5C 1319.31,1002.86 1309.31,1012.86 1298,1021.5C 1295.67,1024.83 1293.33,1028.17 1291,1031.5C 1290.45,1034.36 1290.61,1037.19 1291.5,1040C 1291.56,1041.71 1290.89,1043.04 1289.5,1044C 1285.28,1043.08 1280.94,1042.41 1276.5,1042C 1270.92,1046.96 1264.59,1050.62 1257.5,1053C 1244,1064.17 1229.66,1074.17 1214.5,1083C 1214.02,1085.9 1213.02,1088.57 1211.5,1091C 1207.98,1091.5 1204.48,1091.33 1201,1090.5C 1189.51,1092.66 1179.01,1097.16 1169.5,1104C 1160.82,1107.01 1152.16,1110.01 1143.5,1113C 1137.5,1117 1131.5,1121 1125.5,1125C 1123.63,1130.1 1119.96,1132.44 1114.5,1132C 1112.38,1133.12 1110.54,1134.62 1109,1136.5C 1108.26,1141.48 1108.76,1146.31 1110.5,1151C 1110.11,1156.06 1107.44,1158.06 1102.5,1157C 1097.94,1152.72 1094.77,1147.55 1093,1141.5C 1090.18,1137.93 1086.52,1135.93 1082,1135.5C 1077.42,1136.37 1073.26,1138.21 1069.5,1141C 1065.46,1141.17 1061.46,1141.67 1057.5,1142.5C 1056,1145.83 1056.5,1148.83 1059,1151.5C 1061.02,1167.23 1055.52,1170.89 1042.5,1162.5C 1041.46,1159.2 1040.12,1156.03 1038.5,1153C 1034.33,1153.04 1030.33,1154.04 1026.5,1156C 1024.17,1156.67 1021.83,1156.67 1019.5,1156C 1018.02,1153.24 1016.35,1150.57 1014.5,1148C 1007.65,1145.8 1000.65,1144.13 993.5,1143C 989.271,1141.89 985.271,1140.22 981.5,1138C 970.853,1136.19 960.186,1136.19 949.5,1138C 945.696,1140.3 942.03,1142.8 938.5,1145.5C 935.833,1143.5 934.5,1140.83 934.5,1137.5C 931.396,1138.86 928.396,1138.7 925.5,1137C 921.026,1133.01 917.026,1128.68 913.5,1124C 908.81,1123.5 904.143,1122.83 899.5,1122C 897.316,1119.63 894.649,1118.97 891.5,1120C 894.248,1123.75 896.582,1127.75 898.5,1132C 898.355,1132.77 898.022,1133.44 897.5,1134C 894.574,1134.22 891.74,1134.72 889,1135.5C 888.667,1139.17 888.333,1142.83 888,1146.5C 885.086,1147.75 883.253,1149.91 882.5,1153C 887.091,1157.8 892.758,1160.8 899.5,1162C 902.097,1165.09 902.931,1168.59 902,1172.5C 896.744,1179.76 890.244,1185.59 882.5,1190C 877.883,1191.3 874.05,1190.13 871,1186.5C 869.771,1177.92 870.605,1169.59 873.5,1161.5C 873.291,1160.91 872.957,1160.41 872.5,1160C 868.381,1159.86 864.381,1159.19 860.5,1158C 859.196,1157.2 858.529,1156.03 858.5,1154.5C 860.091,1150.96 860.591,1147.29 860,1143.5C 855.717,1142.27 851.55,1140.77 847.5,1139C 849.351,1138.16 851.184,1137.33 853,1136.5C 853.242,1129.99 850.575,1124.99 845,1121.5C 844.054,1115.27 841.721,1109.61 838,1104.5C 835.531,1102.35 832.698,1100.85 829.5,1100C 823.383,1099.18 817.383,1097.84 811.5,1096C 803.667,1091.58 796,1086.92 788.5,1082C 774.82,1070.65 761.486,1058.98 748.5,1047C 742.167,1039.33 735.167,1032.33 727.5,1026C 724.97,1024.58 722.303,1024.25 719.5,1025C 714.306,1026.85 709.472,1029.35 705,1032.5C 704.768,1029.26 703.268,1026.76 700.5,1025C 688.122,1024.62 675.789,1025.29 663.5,1027C 660.578,1027.42 657.911,1028.42 655.5,1030C 657.61,1032.53 658.11,1035.03 657,1037.5C 651.284,1037.6 646.118,1039.27 641.5,1042.5C 637.681,1041.05 634.015,1041.38 630.5,1043.5C 632.484,1039.05 636.151,1035.89 641.5,1034C 640.859,1031.87 639.526,1030.37 637.5,1029.5C 635.016,1031.48 632.683,1033.65 630.5,1036C 628.888,1036.72 627.388,1036.55 626,1035.5C 625.516,1033.09 625.85,1030.75 627,1028.5C 629.19,1026.61 631.023,1024.44 632.5,1022C 627.021,1016.19 621.188,1010.69 615,1005.5C 612.938,1003.1 611.271,1000.43 610,997.5C 603.927,991.883 597.761,986.383 591.5,981C 590.167,980.333 588.833,980.333 587.5,981C 584.446,983.194 581.112,984.861 577.5,986C 575.081,991.044 571.081,993.21 565.5,992.5C 565.473,986.527 568.473,983.527 574.5,983.5C 578.167,979.5 581.833,975.5 585.5,971.5C 581.552,965.782 578.885,959.616 577.5,953C 574.604,952.94 571.937,953.773 569.5,955.5C 567.391,955.225 566.058,954.058 565.5,952C 568.37,948.791 570.87,945.291 573,941.5C 573.326,937.47 573.326,933.47 573,929.5C 578.867,924.971 583.2,919.305 586,912.5C 590,908.5 594,904.5 598,900.5C 599.559,898.783 600.392,896.783 600.5,894.5C 603.93,894.893 607.096,894.227 610,892.5C 611.97,888.566 614.304,884.899 617,881.5C 617.724,875.682 617.057,870.015 615,864.5C 612.536,863.205 611.036,861.205 610.5,858.5C 613.051,855.278 615.551,851.945 618,848.5C 619.476,843.924 619.81,839.257 619,834.5C 617.626,824.709 615.626,815.042 613,805.5C 612.667,800.5 612.333,795.5 612,790.5C 610.245,786.01 608.912,781.343 608,776.5C 607.215,774.714 606.049,773.214 604.5,772C 597.919,768.542 591.252,765.375 584.5,762.5C 582.971,762.529 581.804,763.196 581,764.5C 576.833,770.667 572.667,776.833 568.5,783C 561.833,787.308 557.166,785.808 554.5,778.5C 557.973,771.514 562.806,765.514 569,760.5C 570.861,758.112 572.194,755.446 573,752.5C 571.723,742.093 570.889,731.593 570.5,721C 569.572,705.836 574.072,692.669 584,681.5C 589.377,670.321 592.377,658.654 593,646.5C 596.895,638.045 600.228,629.378 603,620.5C 611.733,601.942 621.399,583.942 632,566.5C 633.489,561.543 634.822,556.543 636,551.5C 637,550.167 638,548.833 639,547.5C 639.667,543.167 639.667,538.833 639,534.5C 636.789,528.489 635.289,522.323 634.5,516C 635.901,498.932 644.901,488.265 661.5,484C 667.469,482.481 673.469,481.148 679.5,480C 681.167,479 682.833,478 684.5,477C 694.042,466.46 703.209,455.627 712,444.5C 729.859,427.641 747.359,410.474 764.5,393C 769.926,389.871 775.093,386.371 780,382.5C 783.128,374.583 785.961,366.583 788.5,358.5C 790.624,357.851 792.624,357.017 794.5,356C 792.675,354.534 792.175,352.701 793,350.5C 794.092,347.612 795.592,344.945 797.5,342.5C 798.086,342.709 798.586,343.043 799,343.5C 799.49,342.207 799.657,340.873 799.5,339.5C 797.409,339.318 795.409,339.652 793.5,340.5C 792.29,335.547 794.29,333.714 799.5,335C 801.607,336.264 802.607,338.097 802.5,340.5C 813.937,337.561 825.271,338.061 836.5,342C 839.833,342.667 843.167,342.667 846.5,342C 863.049,335.538 880.049,330.538 897.5,327C 906.992,322.46 916.992,319.794 927.5,319C 932.322,316.328 936.989,313.495 941.5,310.5C 943.239,311.4 945.072,312.067 947,312.5C 958.461,310.541 969.961,310.208 981.5,311.5C 984.584,311.369 987.25,310.369 989.5,308.5 Z"/></g>
<g><path style="opacity:1" fill="#1b1b1b" d="M 803.5,345.5 C 805.966,344.366 808.633,344.199 811.5,345C 808.954,346.812 806.288,346.978 803.5,345.5 Z"/></g>
<g><path style="opacity:1" fill="#000000" d="M 903.5,499.5 C 907.412,498.635 909.912,496.302 911,492.5C 913.84,481.141 916.673,469.808 919.5,458.5C 915.83,458.327 913.33,459.993 912,463.5C 909.91,474.563 907.576,485.563 905,496.5C 904.329,497.252 903.496,497.586 902.5,497.5C 898.046,496.218 894.213,493.885 891,490.5C 888.423,484.329 886.09,477.996 884,471.5C 883.333,470.167 883.333,468.833 884,467.5C 887.425,465.782 890.759,463.782 894,461.5C 894.333,458.167 894.667,454.833 895,451.5C 898.186,444.952 901.186,438.285 904,431.5C 906.691,425.471 911.191,421.638 917.5,420C 920.64,416.86 923.806,413.694 927,410.5C 930.644,402.562 934.478,394.729 938.5,387C 942.142,387.651 945.475,389.151 948.5,391.5C 949.938,391.281 951.271,390.781 952.5,390C 955.624,386.175 959.124,382.675 963,379.5C 966.838,371.998 972.338,366.164 979.5,362C 985.862,361.325 992.196,360.492 998.5,359.5C 1003.25,359.139 1007.42,360.472 1011,363.5C 1015.44,373.611 1022.78,380.611 1033,384.5C 1036.38,383.928 1039.55,382.761 1042.5,381C 1047.95,374.539 1054.29,369.206 1061.5,365C 1065.9,364.022 1070.07,364.522 1074,366.5C 1073.81,370.26 1074.97,373.426 1077.5,376C 1090.21,387.045 1103.21,397.711 1116.5,408C 1124.72,411.941 1133.05,415.608 1141.5,419C 1148.25,419.715 1154.92,419.215 1161.5,417.5C 1188.83,419.335 1212.83,429.168 1233.5,447C 1243.61,451.777 1252.61,458.111 1260.5,466C 1284.51,490.003 1304.68,516.836 1321,546.5C 1318.96,554.833 1317.46,563.333 1316.5,572C 1315.85,582.697 1320.18,590.697 1329.5,596C 1333.54,598.573 1337.88,600.573 1342.5,602C 1346.83,605.803 1348.66,610.636 1348,616.5C 1350.72,627.36 1354.05,638.027 1358,648.5C 1368.69,692.084 1370.69,736.084 1364,780.5C 1360.18,796.117 1356.51,811.783 1353,827.5C 1351.2,833.098 1348.87,838.431 1346,843.5C 1343.73,852.299 1341.07,860.965 1338,869.5C 1327.08,892.337 1315.42,914.671 1303,936.5C 1290.01,955.496 1275.85,973.496 1260.5,990.5C 1246.83,1001 1233.17,1011.5 1219.5,1022C 1205,1031.08 1190.66,1040.42 1176.5,1050C 1164.5,1055.67 1152.5,1061.33 1140.5,1067C 1122.86,1066.65 1105.86,1069.99 1089.5,1077C 1084.17,1077.67 1078.83,1077.67 1073.5,1077C 1071.89,1072.35 1071.06,1067.52 1071,1062.5C 1067.39,1057.58 1063.39,1057.24 1059,1061.5C 1058.5,1064.82 1058.33,1068.15 1058.5,1071.5C 1055.86,1071.95 1053.53,1073.12 1051.5,1075C 1050.17,1075.67 1048.83,1075.67 1047.5,1075C 1043.6,1071.1 1039.77,1067.27 1036,1063.5C 1035.23,1063.64 1034.56,1063.98 1034,1064.5C 1033.88,1067.01 1032.88,1069.01 1031,1070.5C 1028.77,1069.3 1026.6,1067.97 1024.5,1066.5C 1021.6,1067.23 1019.93,1069.07 1019.5,1072C 1018.55,1072.48 1017.55,1072.65 1016.5,1072.5C 1017.85,1066.3 1015.51,1063.8 1009.5,1065C 1007.94,1067.73 1005.61,1068.9 1002.5,1068.5C 996.699,1067.34 990.866,1066.34 985,1065.5C 980.675,1067.07 976.508,1066.73 972.5,1064.5C 969.782,1066.39 966.949,1068.06 964,1069.5C 957.803,1067.53 951.47,1066.2 945,1065.5C 941.405,1067.2 937.571,1068.2 933.5,1068.5C 931.833,1068.33 930.167,1068.17 928.5,1068C 924.857,1063 921.857,1063.33 919.5,1069C 918,1069.17 916.5,1069.33 915,1069.5C 912.063,1069.31 909.563,1068.31 907.5,1066.5C 902.193,1067.19 896.859,1067.03 891.5,1066C 861.386,1055.77 833.386,1041.77 807.5,1024C 793.886,1009.71 778.553,997.71 761.5,988C 752.09,979.858 742.923,971.358 734,962.5C 725,950.833 716,939.167 707,927.5C 699,914.167 691,900.833 683,887.5C 667.315,856.111 656.648,823.111 651,788.5C 649.848,785.56 648.848,782.56 648,779.5C 647.403,758.285 646.236,737.118 644.5,716C 645.851,700.536 646.684,685.036 647,669.5C 651.095,656.64 655.761,643.973 661,631.5C 670.791,617.699 679.791,603.366 688,588.5C 696.394,580.55 706.227,575.05 717.5,572C 734.057,562.732 742.891,548.565 744,529.5C 744.167,524.333 744.333,519.167 744.5,514C 744.264,501.032 743.097,488.198 741,475.5C 742.167,474.333 743.333,473.167 744.5,472C 753.277,471.163 761.943,471.83 770.5,474C 781.167,474.667 791.833,474.667 802.5,474C 813.317,468.114 824.65,466.948 836.5,470.5C 843.717,466.282 851.384,465.449 859.5,468C 868.785,472.619 875.285,479.786 879,489.5C 883.698,494.901 889.364,498.568 896,500.5C 898.528,500.275 901.028,499.942 903.5,499.5 Z"/></g>
<g><path style="opacity:1" fill="#ececec" d="M 903.5,499.5 C 903.167,498.833 902.833,498.167 902.5,497.5C 903.496,497.586 904.329,497.252 905,496.5C 907.576,485.563 909.91,474.563 912,463.5C 913.33,459.993 915.83,458.327 919.5,458.5C 916.673,469.808 913.84,481.141 911,492.5C 909.912,496.302 907.412,498.635 903.5,499.5 Z"/></g>
<g><path style="opacity:1" fill="#f9f9f9" d="M 994.5,539.5 C 996.39,539.297 997.89,539.963 999,541.5C 1000.55,544.312 1001.38,547.312 1001.5,550.5C 1042.63,545.298 1068.46,562.631 1079,602.5C 1083.7,629.27 1080.37,654.936 1069,679.5C 1050.91,711.302 1023.41,726.635 986.5,725.5C 986.787,777.982 999.287,827.316 1024,873.5C 1062.43,932.782 1116.26,954.615 1185.5,939C 1201.12,934.026 1215.45,926.693 1228.5,917C 1237.83,909 1247.17,901 1256.5,893C 1265.39,891.645 1267.89,895.145 1264,903.5C 1217.48,955.169 1160.98,970.669 1094.5,950C 1048.36,930.526 1015.53,897.692 996,851.5C 976.011,804.288 968.511,755.454 973.5,705C 975.5,704.333 977.5,704.333 979.5,705C 981.305,707.403 983.638,709.07 986.5,710C 1022.48,711.087 1047.31,694.921 1061,661.5C 1068.48,640.847 1069.48,619.847 1064,598.5C 1051.92,565.295 1028.92,553.962 995,564.5C 975.185,662.535 955.185,760.535 935,858.5C 934.167,860.667 932.667,862.167 930.5,863C 926.909,863.789 923.409,863.622 920,862.5C 919.077,860.966 918.577,859.299 918.5,857.5C 937.9,762.328 957.734,667.328 978,572.5C 974.667,575.167 971.333,577.833 968,580.5C 965.381,588.226 960.214,590.726 952.5,588C 951.667,587.167 950.833,586.333 950,585.5C 948.507,575.969 952.007,568.802 960.5,564C 968.301,559.175 976.634,555.509 985.5,553C 987.63,547.903 990.63,543.403 994.5,539.5 Z"/></g>
<g><path style="opacity:1" fill="#f9f9f9" d="M 1157.5,542.5 C 1161.22,541.773 1163.89,543.106 1165.5,546.5C 1208.18,548.916 1234.35,570.916 1244,612.5C 1247.81,645.146 1240.81,675.146 1223,702.5C 1202.53,727.788 1175.86,740.455 1143,740.5C 1137.23,740.623 1131.56,739.956 1126,738.5C 1125.5,738.833 1125,739.167 1124.5,739.5C 1115.8,778.7 1107.63,818.033 1100,857.5C 1098.14,863.178 1094.31,865.345 1088.5,864C 1086.56,862.278 1085.56,860.111 1085.5,857.5C 1093,816.829 1101.33,776.329 1110.5,736C 1110.36,735.228 1110.02,734.561 1109.5,734C 1100.33,731.415 1092,727.248 1084.5,721.5C 1082.36,714.793 1084.86,711.126 1092,710.5C 1099.67,712.335 1107.17,714.668 1114.5,717.5C 1125.04,666.799 1135.71,616.133 1146.5,565.5C 1141.64,566.596 1137.31,568.762 1133.5,572C 1129.81,576.686 1125.81,581.019 1121.5,585C 1114,586.833 1111.17,584 1113,576.5C 1121.63,561.552 1134.46,552.385 1151.5,549C 1153.03,546.31 1155.03,544.143 1157.5,542.5 Z"/></g>
<g><path style="opacity:1" fill="#f9f9f9" d="M 864.5,547.5 C 896.97,546.294 916.637,561.628 923.5,593.5C 922.303,600.273 918.303,602.773 911.5,601C 909.079,594.159 906.579,587.326 904,580.5C 894.024,564.598 879.858,558.765 861.5,563C 850.904,567.318 844.404,575.151 842,586.5C 840.244,602.874 841.911,618.874 847,634.5C 849.268,642.637 851.934,650.637 855,658.5C 864.724,681.005 874.057,703.672 883,726.5C 891.842,749.396 895.176,773.063 893,797.5C 880.916,852.312 847.083,874.812 791.5,865C 739.833,852.845 722,821.345 738,770.5C 745.519,754.978 756.019,741.811 769.5,731C 778.42,728.915 781.253,732.082 778,740.5C 770.595,747.235 763.928,754.568 758,762.5C 747.702,780.951 745.702,800.285 752,820.5C 759.115,833.986 769.948,843.153 784.5,848C 806.63,855.429 827.963,853.762 848.5,843C 871.941,823.698 881.441,798.865 877,768.5C 874.429,755.652 871.096,742.985 867,730.5C 856.137,703.579 845.471,676.579 835,649.5C 831.688,638.917 828.688,628.251 826,617.5C 822.828,597.013 827.162,578.347 839,561.5C 846.074,554.05 854.574,549.383 864.5,547.5 Z"/></g>
<g><path style="opacity:1" fill="#010101" d="M 1162.5,562.5 C 1199.56,564.714 1222.06,584.047 1230,620.5C 1234.13,652.853 1224.96,680.686 1202.5,704C 1181.13,722.345 1156.46,728.845 1128.5,723.5C 1139.08,669.663 1150.42,615.997 1162.5,562.5 Z"/></g>
</svg>
