<svg xmlns="http://www.w3.org/2000/svg" width="2000" height="1500" style="shape-rendering:geometricPrecision;text-rendering:geometricPrecision;image-rendering:optimizeQuality;fill-rule:evenodd;clip-rule:evenodd"><path style="opacity:1" fill="#fefefe" d="M-.5-.5h2000v1500H-.5V-.5z"/><path style="opacity:1" fill="#010101" d="M989.5 308.5c11.01-.167 22.01 0 33 .5 19.68 4.649 39.68 6.983 60 7a616.09 616.09 0 0 1 47 10c6.73 4.182 14.06 6.182 22 6 5.24 3.453 10.91 6.12 17 8 9.58.411 17.91 3.744 25 10 7.99 3.325 15.33 7.659 22 13 9 3.006 17 7.673 24 14 4.02 2.034 8.02 4.034 12 6 11.52 8.695 22.19 18.195 32 28.5 11.02 6.842 21.02 15.009 30 24.5a76.98 76.98 0 0 1 9 4l19.5 19.5a548.296 548.296 0 0 0 19 40c14.45 20.566 25.45 42.899 33 67a35.953 35.953 0 0 1 4 7 702.225 702.225 0 0 1 15 48c1.67 2.333 3.33 4.667 5 7 1.7 20.331 3.7 40.664 6 61a32.448 32.448 0 0 0 4 10 148.43 148.43 0 0 1 13 16c.5 4.014.33 8.014-.5 12 .3 3.426 1.3 6.592 3 9.5-2.68 5.021-6.51 9.187-11.5 12.5a189.266 189.266 0 0 0-9 46 225.222 225.222 0 0 0-5.5 25c.33 1.333.67 2.667 1 4a64.864 64.864 0 0 1 14 13 11.658 11.658 0 0 1-5 3c-3.56-1.98-7.23-3.813-11-5.5-1.28-.684-2.45-.517-3.5.5a258.856 258.856 0 0 1-14 42 4107.118 4107.118 0 0 1-37 77c-2.67 4-5.33 8-8 12a588.035 588.035 0 0 0-49.5 50.5c-9.61 4.89-13.94 12.56-13 23 .06 1.71-.61 3.04-2 4-4.22-.92-8.56-1.59-13-2-5.58 4.96-11.91 8.62-19 11a244.26 244.26 0 0 1-21 16 187.75 187.75 0 0 0-22 14c-.48 2.9-1.48 5.57-3 8-6.37-.92-12.71-.58-19 1-7.47 2.9-14.47 6.57-21 11-9.34 3.34-18.68 6.67-28 10-5.5 3.92-11.16 7.58-17 11-2.44 5.12-6.44 7.79-12 8a17.797 17.797 0 0 0-5.5 4.5c-.82 5.13-.32 10.13 1.5 15-.68 4.85-3.34 6.69-8 5.5-4.45-4.33-7.62-9.5-9.5-15.5-2.82-3.57-6.48-5.57-11-6-4.58.87-8.74 2.71-12.5 5.5-4.25.2-8.42.7-12.5 1.5 1.32 6.82 1.65 13.82 1 21-.94 2.45-2.78 3.45-5.5 3-7.58-.53-11.74-4.53-12.5-12-.39-.93-1.05-1.59-2-2-3.99.66-7.82 1.83-11.5 3.5-6.05 1.95-9.55-.21-10.5-6.5-.9-1.2-2.07-2.03-3.5-2.5a151.54 151.54 0 0 0-19-4c-4.26-1.13-8.26-2.8-12-5-10.647-1.81-21.314-1.81-32 0-3.804 2.3-7.47 4.8-11 7.5-2.667-2-4-4.67-4-8-1.699.12-3.365.45-5 1-5.959-1.46-9.792-5.13-11.5-11a11.477 11.477 0 0 0-4.5-3.5c-6.709-.22-13.042-1.72-19-4.5-1 .17-2 .33-3 .5 3.531 4.23 5.531 9.06 6 14.5-2.948-.28-5.781.06-8.5 1l-1 11c-2.914 1.25-4.747 3.41-5.5 6.5.259 1.26.926 2.26 2 3 5.254 2.8 10.587 5.3 16 7.5 2.377 3.58 2.543 7.25.5 11-5.923 7.7-13.423 13.03-22.5 16-3.604-.05-6.104-1.72-7.5-5l-.5-8.5a49.258 49.258 0 0 1 3-17.5c-3.682.17-7.348 0-11-.5a7.014 7.014 0 0 1-3.5-2.5c1.072-4.21 1.406-8.54 1-13-4.283-1.23-8.45-2.73-12.5-4.5l7-3c-1.612-6.73-5.112-12.23-10.5-16.5-.826-6.82-3.659-12.65-8.5-17.5-7.988-2-15.988-4-24-6a187.965 187.965 0 0 1-27-17 328.395 328.395 0 0 1-22-21c-4.38-4.05-9.046-7.71-14-11a155.844 155.844 0 0 0-21-21c-2.53-1.42-5.197-1.75-8-1a60.043 60.043 0 0 0-14.5 7.5c-.232-3.24-1.732-5.74-4.5-7.5-12.392-.55-24.726.12-37 2-2.922.42-5.589 1.42-8 3 2.11 2.53 2.61 5.03 1.5 7.5-5.716.1-10.882 1.77-15.5 5-3.819-1.45-7.485-1.12-11 1 1.96-4.42 5.626-7.59 11-9.5a11.323 11.323 0 0 1-1.5-3.5c-1.049-1.02-2.216-1.18-3.5-.5l-6 6c-1.612.72-3.112.55-4.5-.5-.484-2.41-.15-4.75 1-7a27.033 27.033 0 0 0 5.5-6.5 205.866 205.866 0 0 0-17.5-16.5c-6.386-10.554-14.886-18.887-25.5-25a121.926 121.926 0 0 0-12 5.5c-1.742 3.909-4.742 6.075-9 6.5-1.766.066-2.766-.768-3-2.5 1.208-4.554 4.208-6.72 9-6.5a192.67 192.67 0 0 0 11-12.5c-4.065-5.456-6.731-11.456-8-18-1.333-.667-2.667-.667-4 0-3.205 3.529-5.872 3.195-8-1a57.55 57.55 0 0 0 7.5-10.5 73.74 73.74 0 0 0 0-12c5.896-4.551 10.229-10.218 13-17a90.479 90.479 0 0 0 15-17c7.322.02 11.656-3.647 13-11 3.379-3.285 4.379-7.285 3-12-.211-4.593-2.044-8.26-5.5-11a10.305 10.305 0 0 1-1-3c.962-2.745 2.795-4.745 5.5-6 2.872-4.047 4.038-8.547 3.5-13.5a1643.377 1643.377 0 0 1-7.5-48.5 42.283 42.283 0 0 1-3-12c-.883-2.602-2.383-4.769-4.5-6.5a273.728 273.728 0 0 0-20-9.5c-1.529.029-2.696.696-3.5 2L568.5 783c-6.667 4.308-11.334 2.808-14-4.5 4.85-8.028 10.683-15.361 17.5-22l1-4a512.062 512.062 0 0 1-2.5-29.5c-.393-11.716 1.774-22.883 6.5-33.5 6.37-6.082 10.703-13.415 13-22a94.802 94.802 0 0 0 4-24 135.1 135.1 0 0 0 10-25 971.183 971.183 0 0 1 28-52c1.278-6.816 3.611-13.149 7-19 .667-4 .667-8 0-12a117.995 117.995 0 0 1-4.5-19.5c1.371-17.042 10.371-27.709 27-32a301.798 301.798 0 0 1 18-4l5-3a634.493 634.493 0 0 0 27.5-32.5 1842.85 1842.85 0 0 0 51.5-50.5 446.332 446.332 0 0 0 16.5-11.5 205.604 205.604 0 0 0 8.5-24 32.448 32.448 0 0 0 6-2.5c-1.074-.739-1.741-1.739-2-3a23.91 23.91 0 0 1 5-10.5 3.647 3.647 0 0 1 1.5 1 8.43 8.43 0 0 0 .5-4 11.988 11.988 0 0 0-6 1c-1.179-4.984.821-6.817 6-5.5 2.107 1.264 3.107 3.097 3 5.5a364.076 364.076 0 0 0 17.5-2 578.117 578.117 0 0 1 16.5 3.5c3.333.667 6.667.667 10 0 14.12-6.421 28.787-10.754 44-13a114.867 114.867 0 0 0 20-7 263.515 263.515 0 0 1 17-3 204.46 204.46 0 0 0 14-8.5 22.77 22.77 0 0 0 5.5 2 112.102 112.102 0 0 1 34.5-1c3.084-.131 5.75-1.131 8-3z"/><path style="opacity:1" fill="#e5e5e5" d="M803.5 345.5c2.466-1.134 5.133-1.301 8-.5-2.546 1.812-5.212 1.978-8 .5z"/><path style="opacity:1" fill="#fefefe" d="M992.5 359.5c5.934-.611 11.6.222 17 2.5a102.895 102.895 0 0 0 15 19c5.15 2.905 10.48 3.238 16 1a127.88 127.88 0 0 1 21-17c3.67-.667 7.33-.667 11 0 1.66 2.507 2.49 5.341 2.5 8.5a968.004 968.004 0 0 0 40.5 33.5 229.059 229.059 0 0 0 26 12c6.43.673 12.76.173 19-1.5 27.68 1.503 52.01 11.336 73 29.5 15.62 8.282 28.78 19.449 39.5 33.5 20.11 20.098 36.28 42.931 48.5 68.5-4.88 11.154-6.04 22.654-3.5 34.5 5.82 9.142 13.99 15.309 24.5 18.5 4.33 3.803 6.16 8.636 5.5 14.5a420.412 420.412 0 0 0 10 32c11.51 45.995 13.18 92.329 5 139-13.45 63.23-39.12 120.897-77 173-8.75 9.91-17.25 19.91-25.5 30a764.884 764.884 0 0 1-97 66.5 189.7 189.7 0 0 0-24 10 284.5 284.5 0 0 0-16 0 248.52 248.52 0 0 0-34 10c-5.58.81-11.08.64-16.5-.5a69.302 69.302 0 0 1-2-14c-3.52-3.57-7.36-3.91-11.5-1-.92 3.26-1.25 6.59-1 10-2.58.07-4.58 1.24-6 3.5-1.67.67-3.33.67-5 0-3.7-3.37-7.04-7.03-10-11-.95-.48-1.95-.65-3-.5.18 2.44-.48 4.6-2 6.5-2.76-.6-5.59-1.43-8.5-2.5-.83.17-1.67.33-2.5.5-.29 3.09-1.96 4.59-5 4.5.16-2.03 0-4.03-.5-6-.84-1.12-2.01-1.79-3.5-2-3.3 1.61-6.64 3.28-10 5-4.667-1.17-9.333-2.33-14-3.5a20.121 20.121 0 0 0-9.5.5c-5.041-3.36-9.208-2.53-12.5 2.5-1 .17-2 .33-3 .5a176.387 176.387 0 0 0-18.5-4c-3.335 1.95-7.001 2.95-11 3-1.833-.17-3.667-.33-5.5-.5-3.764-4.84-6.764-4.51-9 1-1.5.17-3 .33-4.5.5-2.937-.19-5.437-1.19-7.5-3-5.322.84-10.655.67-16-.5-29.804-9.74-57.47-23.4-83-41a495.464 495.464 0 0 0-28-25 331.384 331.384 0 0 1-42.5-32.5 134.828 134.828 0 0 0-17-21c-19.719-26.092-36.386-54.092-50-84a589.984 589.984 0 0 1-23-83 1608.21 1608.21 0 0 0-3.5-62.5 764.04 764.04 0 0 0 2.5-47.5 324.573 324.573 0 0 1 14-38 475.646 475.646 0 0 0 27-43 45.255 45.255 0 0 1 8.5-7.5 314.512 314.512 0 0 0 30-15c10.465-9.097 15.965-20.597 16.5-34.5l.5-19a224.411 224.411 0 0 0-2.5-37l3.5-3.5a75.745 75.745 0 0 1 26 2c10.667.667 21.333.667 32 0 7.727-4.682 16.06-6.682 25-6 5.655 3.613 10.988 3.28 16-1a49.226 49.226 0 0 1 14 0c10.227 4.561 17.394 12.061 21.5 22.5 4.698 5.401 10.364 9.068 17 11 4.77-.106 9.104-1.44 13-4a489.67 489.67 0 0 0 10.5-38 8.43 8.43 0 0 0-4 .5l-3.5 5.5a147.26 147.26 0 0 0-4 22 82.812 82.812 0 0 1-3.5 10.5c-4.625.026-8.625-1.64-12-5a312.238 312.238 0 0 0-6.5-13.5c-1.48-3.572-2.146-7.238-2-11a9.454 9.454 0 0 1 1.5-2.5c8.276-.658 11.443-5.158 9.5-13.5a101.31 101.31 0 0 1 15.5-29c6.369-1.854 11.536-5.521 15.5-11a849.033 849.033 0 0 1 12.5-24.5c1-.667 2-.667 3 0a45.223 45.223 0 0 0 7 4.5 10.258 10.258 0 0 0 4-1.5c2.5-3.833 5.667-7 9.5-9.5l10.5-14.5c6.095-4.31 12.761-6.477 20-6.5z"/><path style="opacity:1" fill="#040404" d="M994.5 539.5c1.322-.17 2.489.163 3.5 1 1.543 3.466 3.21 6.8 5 10 40.57-4.729 65.9 12.604 76 52 6.09 33.574-.58 64.241-20 92-19.21 21.681-43.37 32.015-72.5 31-.18 52.623 12.32 101.956 37.5 148 35.09 55.385 85.26 78.219 150.5 68.5 19.8-4.567 37.8-12.901 54-25 9.33-8 18.67-16 28-24 8.89-1.355 11.39 2.145 7.5 10.5-45.6 50.277-101.1 66.11-166.5 47.5-47.66-18.992-81.49-52.159-101.5-99.5-18.633-45.837-26.967-93.504-25-143 1.691-3.713 4.525-4.879 8.5-3.5 1.805 2.403 4.138 4.07 7 5 35.94 1.1 60.78-15.066 74.5-48.5 8.99-24.527 8.66-48.861-1-73-11.74-22.596-30.24-31.43-55.5-26.5a26.552 26.552 0 0 0-9.5 2.5 68760.394 68760.394 0 0 0-60 294c-.833 2.167-2.333 3.667-4.5 4.5-3 .667-6 .667-9 0-2.787-2.167-3.62-5.001-2.5-8.5a2282763 2282763 0 0 1 59-282c-6.053 3.219-10.553 7.885-13.5 14-5.112 4.08-9.946 3.747-14.5-1-1.405-6.035-.072-11.368 4-16 9.138-7.987 19.638-13.487 31.5-16.5 2.142-5.131 5.142-9.631 9-13.5z"/><path style="opacity:1" fill="#050505" d="M1157.5 542.5c4.71-.619 7.37 1.381 8 6 36.24-.248 61.08 16.419 74.5 50 7.66 29.752 5.32 58.752-7 87-19.36 37.115-50.19 55.449-92.5 55-4.94.056-9.77-.61-14.5-2l-1.5 1a4431.367 4431.367 0 0 0-24.5 118c-2.18 5.189-6.01 7.355-11.5 6.5-1.94-1.722-2.94-3.889-3-6.5a3414.983 3414.983 0 0 1 25-120.5c-.09-1.107-.42-2.107-1-3-9.59-2.545-18.09-7.045-25.5-13.5-1.11-6.233 1.56-9.566 8-10a97.24 97.24 0 0 1 21 7c.95-.405 1.61-1.072 2-2 10.82-49.943 21.32-99.943 31.5-150-9.3 2.124-16.13 7.458-20.5 16-3.91 4.153-8.24 4.819-13 2a12.44 12.44 0 0 1 0-7c8.49-14.816 21.16-23.816 38-27a63.814 63.814 0 0 0 6.5-7zM864.5 547.5c34.012-.811 53.512 15.522 58.5 49-2.587 4.568-6.421 6.068-11.5 4.5-2.315-13.973-8.982-25.306-20-34-24.047-12.048-40.547-5.548-49.5 19.5-1.756 16.37-.089 32.37 5 48a919.046 919.046 0 0 0 33 84c7.829 20.314 12.329 41.314 13.5 63-4.076 64.234-38.076 92.067-102 83.5-19.838-3.993-36.338-13.493-49.5-28.5-9.385-16.547-12.052-34.214-8-53 5.853-21.524 17.686-39.024 35.5-52.5 8.92-2.085 11.753 1.082 8.5 9.5-18.727 14.621-28.894 33.788-30.5 57.5.957 26.632 14.29 43.632 40 51 44.235 11.97 73.735-3.53 88.5-46.5 2.747-11.943 3.08-23.943 1-36a324.232 324.232 0 0 0-11-39 1201.098 1201.098 0 0 1-37-97c-7.486-24.692-4.152-47.692 10-69 7.064-7.445 15.564-12.112 25.5-14z"/><path style="opacity:1" fill="#fdfdfd" d="M1161.5 562.5c36.77 1.602 59.6 20.269 68.5 56 4.86 33.732-4.64 62.565-28.5 86.5-21.32 17.58-45.65 23.747-73 18.5a41542.87 41542.87 0 0 1 33-161z"/></svg>