<?xml version="1.0" encoding="UTF-8"?>
<!DOCTYPE svg PUBLIC "-//W3C//DTD SVG 1.1//EN" "http://www.w3.org/Graphics/SVG/1.1/DTD/svg11.dtd">
<svg xmlns="http://www.w3.org/2000/svg" version="1.1" width="2000px" height="1500px" style="shape-rendering:geometricPrecision; text-rendering:geometricPrecision; image-rendering:optimizeQuality; fill-rule:evenodd; clip-rule:evenodd" xmlns:xlink="http://www.w3.org/1999/xlink">
<g><path style="opacity:1" fill="#162836" d="M -0.5,-0.5 C 666.167,-0.5 1332.83,-0.5 1999.5,-0.5C 1999.5,499.5 1999.5,999.5 1999.5,1499.5C 1332.83,1499.5 666.167,1499.5 -0.5,1499.5C -0.5,999.5 -0.5,499.5 -0.5,-0.5 Z"/></g>
<g><path style="opacity:1" fill="#ce754f" d="M 989.5,308.5 C 1000.51,308.333 1011.51,308.5 1022.5,309C 1042.18,313.649 1062.18,315.983 1082.5,316C 1089.55,318.756 1096.88,320.09 1104.5,320C 1112.9,323.015 1121.57,325.015 1130.5,326C 1136.79,330.324 1143.79,332.324 1151.5,332C 1156.74,335.453 1162.41,338.12 1168.5,340C 1178.08,340.411 1186.41,343.744 1193.5,350C 1201.49,353.325 1208.83,357.659 1215.5,363C 1224.5,366.006 1232.5,370.673 1239.5,377C 1243.52,379.034 1247.52,381.034 1251.5,383C 1260.98,390.31 1270.31,397.81 1279.5,405.5C 1280.43,407.766 1281.77,409.766 1283.5,411.5C 1294.52,418.342 1304.52,426.509 1313.5,436C 1316.58,437.139 1319.58,438.472 1322.5,440C 1329,446.5 1335.5,453 1342,459.5C 1347.79,473.076 1354.12,486.409 1361,499.5C 1375.44,520.051 1386.44,542.384 1394,566.5C 1395.59,568.67 1396.92,571.004 1398,573.5C 1403.62,589.295 1408.62,605.295 1413,621.5C 1414.67,623.833 1416.33,626.167 1418,628.5C 1418.33,634.833 1418.67,641.167 1419,647.5C 1422.09,662.685 1424.09,678.018 1425,693.5C 1426,695.5 1427,697.5 1428,699.5C 1432.71,704.543 1437.05,709.877 1441,715.5C 1441.5,719.514 1441.33,723.514 1440.5,727.5C 1440.29,730.229 1441.13,732.562 1443,734.5C 1443.67,736.167 1443.67,737.833 1443,739.5C 1439,743.5 1435,747.5 1431,751.5C 1429.16,759.205 1427.16,766.871 1425,774.5C 1424.69,781.868 1424.02,789.201 1423,796.5C 1419.55,805.608 1418.05,814.942 1418.5,824.5C 1423.79,828.127 1428.46,832.46 1432.5,837.5C 1431.07,838.935 1429.4,839.935 1427.5,840.5C 1422.78,837.816 1417.78,836.149 1412.5,835.5C 1409.52,849.954 1405.02,863.954 1399,877.5C 1386.93,903.309 1374.6,928.976 1362,954.5C 1359.33,958.5 1356.67,962.5 1354,966.5C 1345.03,974.469 1336.36,982.803 1328,991.5C 1319.28,1002.89 1309.28,1012.89 1298,1021.5C 1295.67,1024.83 1293.33,1028.17 1291,1031.5C 1290.45,1034.36 1290.61,1037.19 1291.5,1040C 1291.56,1041.71 1290.89,1043.04 1289.5,1044C 1285.28,1043.08 1280.94,1042.41 1276.5,1042C 1270.92,1046.96 1264.59,1050.62 1257.5,1053C 1250.78,1058.72 1243.78,1064.05 1236.5,1069C 1228.83,1073.17 1221.49,1077.83 1214.5,1083C 1214.02,1085.9 1213.02,1088.57 1211.5,1091C 1207.98,1091.5 1204.48,1091.33 1201,1090.5C 1189.48,1092.68 1178.98,1097.18 1169.5,1104C 1160.82,1107.01 1152.16,1110.01 1143.5,1113C 1138,1116.92 1132.34,1120.58 1126.5,1124C 1124.95,1126.26 1123.29,1128.42 1121.5,1130.5C 1116.35,1130.49 1112.19,1132.49 1109,1136.5C 1108.33,1141.77 1108.83,1146.93 1110.5,1152C 1109.63,1156.54 1106.96,1158.2 1102.5,1157C 1097.94,1152.72 1094.77,1147.55 1093,1141.5C 1090.18,1137.93 1086.52,1135.93 1082,1135.5C 1077.42,1136.37 1073.26,1138.21 1069.5,1141C 1065.25,1141.2 1061.08,1141.7 1057,1142.5C 1058.81,1148.23 1059.48,1154.23 1059,1160.5C 1058.64,1164.57 1056.47,1166.91 1052.5,1167.5C 1045.03,1166.2 1040.86,1161.86 1040,1154.5C 1039.48,1153.48 1038.65,1152.82 1037.5,1152.5C 1033.68,1153.2 1030.01,1154.37 1026.5,1156C 1020.45,1157.95 1016.95,1155.79 1016,1149.5C 1015.1,1148.3 1013.93,1147.47 1012.5,1147C 1001.67,1145.71 991.334,1142.71 981.5,1138C 970.853,1136.19 960.186,1136.19 949.5,1138C 945.696,1140.3 942.03,1142.8 938.5,1145.5C 935.833,1143.5 934.5,1140.83 934.5,1137.5C 931.396,1138.86 928.396,1138.7 925.5,1137C 921.026,1133.01 917.026,1128.68 913.5,1124C 906.791,1123.78 900.458,1122.28 894.5,1119.5C 893.5,1119.67 892.5,1119.83 891.5,1120C 895.577,1123.99 897.577,1128.82 897.5,1134.5C 894.552,1134.22 891.719,1134.56 889,1135.5C 888.667,1139.17 888.333,1142.83 888,1146.5C 885.086,1147.75 883.253,1149.91 882.5,1153C 887.091,1157.8 892.758,1160.8 899.5,1162C 902.097,1165.09 902.931,1168.59 902,1172.5C 896.687,1180.15 889.854,1185.98 881.5,1190C 877.207,1191.2 873.707,1190.03 871,1186.5C 869.771,1177.91 870.605,1169.57 873.5,1161.5C 873.291,1160.91 872.957,1160.41 872.5,1160C 868.381,1159.86 864.381,1159.19 860.5,1158C 859.196,1157.2 858.529,1156.03 858.5,1154.5C 860.261,1151 860.761,1147.34 860,1143.5C 855.717,1142.27 851.55,1140.77 847.5,1139C 849.351,1138.16 851.184,1137.33 853,1136.5C 852.701,1129.5 849.701,1123.83 844,1119.5C 843.2,1111.73 839.7,1105.56 833.5,1101C 826.114,1099.54 818.781,1097.87 811.5,1096C 801.994,1091.08 792.994,1085.42 784.5,1079C 776.811,1072.31 769.478,1065.31 762.5,1058C 758.12,1053.95 753.454,1050.29 748.5,1047C 742.167,1039.33 735.167,1032.33 727.5,1026C 724.97,1024.58 722.303,1024.25 719.5,1025C 714.306,1026.85 709.472,1029.35 705,1032.5C 704.768,1029.26 703.268,1026.76 700.5,1025C 688.122,1024.62 675.789,1025.29 663.5,1027C 660.578,1027.42 657.911,1028.42 655.5,1030C 657.61,1032.53 658.11,1035.03 657,1037.5C 651.284,1037.6 646.118,1039.27 641.5,1042.5C 637.681,1041.05 634.015,1041.38 630.5,1043.5C 632.46,1039.08 636.126,1035.91 641.5,1034C 640.859,1031.87 639.526,1030.37 637.5,1029.5C 635.016,1031.48 632.683,1033.65 630.5,1036C 628.888,1036.72 627.388,1036.55 626,1035.5C 625.516,1033.09 625.85,1030.75 627,1028.5C 629.19,1026.61 631.023,1024.44 632.5,1022C 627.021,1016.19 621.188,1010.69 615,1005.5C 611.972,999.466 607.805,994.299 602.5,990C 598.001,986.993 593.668,983.826 589.5,980.5C 585.655,982.588 581.655,984.421 577.5,986C 575.358,990.903 571.691,992.903 566.5,992C 565.339,989.279 566.006,986.946 568.5,985C 575.573,982.281 581.239,977.614 585.5,971C 581.435,965.544 578.769,959.544 577.5,953C 576.167,952.333 574.833,952.333 573.5,953C 570.295,956.529 567.628,956.195 565.5,952C 568.37,948.791 570.87,945.291 573,941.5C 573.326,937.47 573.326,933.47 573,929.5C 578.867,924.971 583.2,919.305 586,912.5C 591.744,907.427 596.744,901.76 601,895.5C 603.405,894.726 605.905,894.226 608.5,894C 611.469,889.886 614.302,885.72 617,881.5C 617.512,875.719 616.846,870.052 615,864.5C 608.783,860.016 609.116,856.016 616,852.5C 618.776,848.782 619.943,844.615 619.5,840C 618.685,828.242 616.519,816.742 613,805.5C 612.667,800.5 612.333,795.5 612,790.5C 610.245,786.01 608.912,781.343 608,776.5C 607.215,774.714 606.049,773.214 604.5,772C 597.919,768.542 591.252,765.375 584.5,762.5C 582.971,762.529 581.804,763.196 581,764.5C 576.833,770.667 572.667,776.833 568.5,783C 561.833,787.308 557.166,785.808 554.5,778.5C 557.973,771.514 562.806,765.514 569,760.5C 570.861,758.112 572.194,755.446 573,752.5C 571.723,742.093 570.889,731.593 570.5,721C 570.218,709.966 572.385,699.466 577,689.5C 583.039,684.095 587.039,677.428 589,669.5C 592.076,661.118 593.743,652.452 594,643.5C 598.164,635.505 601.497,627.171 604,618.5C 612.825,600.848 622.158,583.515 632,566.5C 633.489,561.543 634.822,556.543 636,551.5C 639.408,546.75 640.408,541.416 639,535.5C 636.944,529.111 635.444,522.611 634.5,516C 635.871,498.958 644.871,488.291 661.5,484C 667.469,482.481 673.469,481.148 679.5,480C 681.167,479 682.833,478 684.5,477C 694.042,466.46 703.209,455.627 712,444.5C 729.859,427.641 747.359,410.474 764.5,393C 769.926,389.871 775.093,386.371 780,382.5C 783.139,374.567 785.972,366.567 788.5,358.5C 790.624,357.851 792.624,357.017 794.5,356C 792.675,354.534 792.175,352.701 793,350.5C 794.092,347.612 795.592,344.945 797.5,342.5C 798.086,342.709 798.586,343.043 799,343.5C 799.49,342.207 799.657,340.873 799.5,339.5C 797.409,339.318 795.409,339.652 793.5,340.5C 792.29,335.547 794.29,333.714 799.5,335C 801.607,336.264 802.607,338.097 802.5,340.5C 813.88,337.556 825.213,338.056 836.5,342C 839.833,342.667 843.167,342.667 846.5,342C 863.049,335.538 880.049,330.538 897.5,327C 901.99,325.726 906.323,324.059 910.5,322C 916.13,320.815 921.797,319.815 927.5,319C 932.322,316.328 936.989,313.495 941.5,310.5C 943.239,311.4 945.072,312.067 947,312.5C 958.45,310.386 969.95,310.052 981.5,311.5C 984.584,311.369 987.25,310.369 989.5,308.5 Z"/></g>
<g><path style="opacity:1" fill="#292f38" d="M 803.5,345.5 C 805.966,344.366 808.633,344.199 811.5,345C 808.954,346.812 806.288,346.978 803.5,345.5 Z"/></g>
<g><path style="opacity:1" fill="#162836" d="M 992.5,359.5 C 998.38,359.048 1004.05,359.882 1009.5,362C 1013.74,368.908 1018.74,375.241 1024.5,381C 1029.65,383.905 1034.98,384.238 1040.5,382C 1046.92,375.575 1053.92,369.909 1061.5,365C 1065.17,364.333 1068.83,364.333 1072.5,365C 1074.16,367.507 1074.99,370.341 1075,373.5C 1088.21,385.044 1101.71,396.211 1115.5,407C 1123.93,411.547 1132.59,415.547 1141.5,419C 1176.57,414.098 1207.24,423.431 1233.5,447C 1243.21,451.52 1251.88,457.52 1259.5,465C 1283.84,489.333 1304.34,516.499 1321,546.5C 1321.67,548.167 1321.67,549.833 1321,551.5C 1309.54,576.485 1316.71,593.318 1342.5,602C 1346.83,605.803 1348.66,610.636 1348,616.5C 1350.91,627.301 1354.24,637.968 1358,648.5C 1369.45,694.476 1371.12,740.809 1363,787.5C 1359.04,800.677 1355.71,814.01 1353,827.5C 1351.2,833.098 1348.87,838.431 1346,843.5C 1343.73,852.299 1341.07,860.965 1338,869.5C 1326.75,893.004 1314.75,916.004 1302,938.5C 1296.18,945.479 1290.84,952.812 1286,960.5C 1277.25,970.41 1268.75,980.41 1260.5,990.5C 1229.9,1015.14 1197.57,1037.3 1163.5,1057C 1155.46,1059.52 1147.8,1062.85 1140.5,1067C 1134.84,1066.93 1129.17,1066.93 1123.5,1067C 1111.88,1069.4 1100.55,1072.74 1089.5,1077C 1083.92,1077.81 1078.42,1077.64 1073,1076.5C 1071.86,1071.92 1071.19,1067.25 1071,1062.5C 1067.99,1058.1 1064.33,1057.43 1060,1060.5C 1058.66,1064.03 1058.16,1067.69 1058.5,1071.5C 1055.6,1072.54 1052.76,1073.87 1050,1075.5C 1044.89,1072.73 1040.73,1068.89 1037.5,1064C 1036.55,1063.52 1035.55,1063.35 1034.5,1063.5C 1034.88,1066.62 1033.71,1068.95 1031,1070.5C 1028.77,1069.3 1026.6,1067.97 1024.5,1066.5C 1021.6,1067.23 1019.93,1069.07 1019.5,1072C 1018.55,1072.48 1017.55,1072.65 1016.5,1072.5C 1016.66,1070.47 1016.5,1068.47 1016,1066.5C 1015.16,1065.38 1013.99,1064.71 1012.5,1064.5C 1009.2,1066.11 1005.86,1067.78 1002.5,1069.5C 997.833,1068.33 993.167,1067.17 988.5,1066C 985.306,1065.41 982.139,1065.57 979,1066.5C 976.79,1065.98 974.623,1065.31 972.5,1064.5C 969.782,1066.39 966.949,1068.06 964,1069.5C 957.803,1067.53 951.47,1066.2 945,1065.5C 941.405,1067.2 937.571,1068.2 933.5,1068.5C 929.552,1068.4 926.052,1067.06 923,1064.5C 921.48,1065.7 920.313,1067.2 919.5,1069C 918,1069.17 916.5,1069.33 915,1069.5C 912.063,1069.31 909.563,1068.31 907.5,1066.5C 902.193,1067.19 896.859,1067.03 891.5,1066C 859.031,1055.6 829.364,1040.27 802.5,1020C 790.613,1007.73 777.279,997.399 762.5,989C 754.342,981.343 746.008,973.843 737.5,966.5C 717.133,942.626 699.3,916.96 684,889.5C 666.284,853.632 654.284,815.966 648,776.5C 647.093,755.981 645.927,735.481 644.5,715C 645.875,699.871 646.709,684.705 647,669.5C 651.095,656.64 655.761,643.973 661,631.5C 670.791,617.699 679.791,603.366 688,588.5C 690.537,585.628 693.37,583.128 696.5,581C 706.351,576.574 716.017,571.907 725.5,567C 736.475,558.552 742.308,547.385 743,533.5C 743.667,519.833 743.667,506.167 743,492.5C 740.943,486.985 740.276,481.318 741,475.5C 742.167,474.333 743.333,473.167 744.5,472C 753.277,471.163 761.943,471.83 770.5,474C 781.167,474.667 791.833,474.667 802.5,474C 809.924,469.522 817.924,467.522 826.5,468C 829.669,468.834 832.836,469.668 836,470.5C 838.992,469.755 841.826,468.588 844.5,467C 848.833,466.333 853.167,466.333 857.5,467C 867.727,471.561 874.894,479.061 879,489.5C 883.698,494.901 889.364,498.568 896,500.5C 900.735,500.401 905.069,499.067 909,496.5C 913.196,484.013 916.696,471.347 919.5,458.5C 918.127,458.343 916.793,458.51 915.5,459C 914.696,460.771 913.529,462.271 912,463.5C 910.3,474.876 907.8,486.043 904.5,497C 899.875,497.026 895.875,495.36 892.5,492C 890.454,487.474 888.287,482.974 886,478.5C 884.266,474.983 883.599,471.316 884,467.5C 884.374,466.584 884.874,465.75 885.5,465C 893.776,464.342 896.943,459.842 895,451.5C 898.727,443.045 902.727,434.712 907,426.5C 909.481,422.686 912.981,420.519 917.5,420C 920.667,416.833 923.833,413.667 927,410.5C 930.644,402.562 934.478,394.729 938.5,387C 939.5,386.333 940.5,386.333 941.5,387C 943.723,388.733 946.056,390.233 948.5,391.5C 949.938,391.281 951.271,390.781 952.5,390C 959.861,382.634 966.527,374.634 972.5,366C 974.67,364.414 977.004,363.08 979.5,362C 984.101,361.851 988.434,361.018 992.5,359.5 Z"/></g>
<g><path style="opacity:1" fill="#cb744f" d="M 994.5,539.5 C 996.39,539.297 997.89,539.963 999,541.5C 1000.55,544.312 1001.38,547.312 1001.5,550.5C 1042.63,545.298 1068.46,562.631 1079,602.5C 1083.77,629.297 1080.44,654.963 1069,679.5C 1050.87,711.321 1023.37,726.655 986.5,725.5C 986.831,775.153 997.997,822.153 1020,866.5C 1057.51,930.571 1112.68,954.738 1185.5,939C 1201.12,934.026 1215.45,926.693 1228.5,917C 1237.83,909 1247.17,901 1256.5,893C 1265.39,891.645 1267.89,895.145 1264,903.5C 1221.43,951.198 1168.93,968.032 1106.5,954C 1054.31,936.476 1017.47,902.31 996,851.5C 977.367,805.665 969.034,757.998 971,708.5C 972.691,704.787 975.525,703.621 979.5,705C 981.305,707.403 983.638,709.07 986.5,710C 1022.47,711.09 1047.3,694.924 1061,661.5C 1068.41,640.792 1069.41,619.792 1064,598.5C 1051.92,565.295 1028.92,553.962 995,564.5C 974.785,662.456 954.785,760.456 935,858.5C 934.167,860.667 932.667,862.167 930.5,863C 927.5,863.667 924.5,863.667 921.5,863C 918.713,860.833 917.88,857.999 919,854.5C 938.677,760.417 958.344,666.417 978,572.5C 972.082,575.417 967.915,579.917 965.5,586C 953.692,592.287 948.525,588.787 950,575.5C 953.57,568.964 958.737,564.131 965.5,561C 971.951,557.774 978.618,555.107 985.5,553C 987.63,547.903 990.63,543.403 994.5,539.5 Z"/></g>
<g><path style="opacity:1" fill="#cb744f" d="M 1157.5,542.5 C 1162.21,541.881 1164.87,543.881 1165.5,548.5C 1201.74,548.249 1226.57,564.916 1240,598.5C 1247.43,627.454 1245.43,655.787 1234,683.5C 1215.69,720.926 1185.52,739.926 1143.5,740.5C 1137.58,740.514 1131.75,739.848 1126,738.5C 1125.5,738.833 1125,739.167 1124.5,739.5C 1115.8,778.696 1107.63,818.029 1100,857.5C 1098.14,863.178 1094.31,865.345 1088.5,864C 1086.56,862.278 1085.56,860.111 1085.5,857.5C 1093.11,817.165 1101.45,776.998 1110.5,737C 1110.41,735.893 1110.08,734.893 1109.5,734C 1099.87,731.438 1091.37,726.938 1084,720.5C 1082.89,714.267 1085.56,710.934 1092,710.5C 1099.26,712.032 1106.26,714.365 1113,717.5C 1113.95,717.095 1114.61,716.428 1115,715.5C 1125.31,665.447 1135.81,615.447 1146.5,565.5C 1137.2,567.624 1130.37,572.958 1126,581.5C 1122.09,585.653 1117.76,586.319 1113,583.5C 1112.33,581.167 1112.33,578.833 1113,576.5C 1121.83,561.184 1135,551.85 1152.5,548.5C 1153.84,546.163 1155.51,544.163 1157.5,542.5 Z"/></g>
<g><path style="opacity:1" fill="#cb744f" d="M 864.5,547.5 C 896.995,546.324 916.662,561.657 923.5,593.5C 923.451,597.104 921.784,599.604 918.5,601C 916.167,601.667 913.833,601.667 911.5,601C 909.22,591.494 905.387,582.661 900,574.5C 887.716,561.183 873.216,558.016 856.5,565C 848.933,570.249 844.099,577.416 842,586.5C 840.244,602.865 841.911,618.865 847,634.5C 856.625,663.042 867.625,691.042 880,718.5C 886.054,734.384 890.387,750.717 893,767.5C 896.352,794.761 890.019,819.427 874,841.5C 857.488,859.789 836.822,868.123 812,866.5C 783.947,867.131 760.613,857.131 742,836.5C 734.969,825.734 731.802,813.901 732.5,801C 732.438,780.181 739.271,762.015 753,746.5C 758.198,740.967 763.698,735.8 769.5,731C 778.42,728.915 781.253,732.082 778,740.5C 763.032,752.107 753.365,767.107 749,785.5C 743.607,817.902 756.441,839.069 787.5,849C 808.774,855.36 829.107,853.36 848.5,843C 872.038,823.724 881.538,798.891 877,768.5C 874.559,754.509 870.892,740.842 866,727.5C 855.804,702.58 845.804,677.58 836,652.5C 833.333,643.833 830.667,635.167 828,626.5C 821.646,603.031 825.313,581.365 839,561.5C 846.074,554.05 854.574,549.383 864.5,547.5 Z"/></g>
<g><path style="opacity:1" fill="#172836" d="M 1161.5,562.5 C 1198.67,564.158 1221.5,583.158 1230,619.5C 1234.29,652.198 1225.13,680.364 1202.5,704C 1181.13,722.345 1156.46,728.845 1128.5,723.5C 1139.39,669.815 1150.39,616.148 1161.5,562.5 Z"/></g>
</svg>
