<svg xmlns="http://www.w3.org/2000/svg" width="2000" height="1500" style="shape-rendering:geometricPrecision;text-rendering:geometricPrecision;image-rendering:optimizeQuality;fill-rule:evenodd;clip-rule:evenodd"><path style="opacity:1" fill="#162836" d="M-.5-.5h2000v1500H-.5V-.5z"/><path style="opacity:1" fill="#ce754f" d="M989.5 308.5c11.01-.167 22.01 0 33 .5 19.68 4.649 39.68 6.983 60 7 7.05 2.756 14.38 4.09 22 4a113.56 113.56 0 0 0 26 6c6.29 4.324 13.29 6.324 21 6 5.24 3.453 10.91 6.12 17 8 9.58.411 17.91 3.744 25 10 7.99 3.325 15.33 7.659 22 13 9 3.006 17 7.673 24 14 4.02 2.034 8.02 4.034 12 6 9.48 7.31 18.81 14.81 28 22.5a18.222 18.222 0 0 0 4 6c11.02 6.842 21.02 15.009 30 24.5a76.98 76.98 0 0 1 9 4l19.5 19.5a548.296 548.296 0 0 0 19 40c14.44 20.551 25.44 42.884 33 67a35.953 35.953 0 0 1 4 7 645.802 645.802 0 0 1 15 48c1.67 2.333 3.33 4.667 5 7 .33 6.333.67 12.667 1 19a326.458 326.458 0 0 1 6 46l3 6a148.43 148.43 0 0 1 13 16c.5 4.014.33 8.014-.5 12-.21 2.729.63 5.062 2.5 7 .67 1.667.67 3.333 0 5l-12 12a572.814 572.814 0 0 1-6 23c-.31 7.368-.98 14.701-2 22-3.45 9.108-4.95 18.442-4.5 28a64.864 64.864 0 0 1 14 13 11.658 11.658 0 0 1-5 3c-4.72-2.684-9.72-4.351-15-5a205.117 205.117 0 0 1-13.5 42 4046.82 4046.82 0 0 1-37 77c-2.67 4-5.33 8-8 12a457.842 457.842 0 0 0-26 25c-8.72 11.39-18.72 21.39-30 30l-7 10c-.55 2.86-.39 5.69.5 8.5.06 1.71-.61 3.04-2 4-4.22-.92-8.56-1.59-13-2-5.58 4.96-11.91 8.62-19 11a244.26 244.26 0 0 1-21 16 187.75 187.75 0 0 0-22 14c-.48 2.9-1.48 5.57-3 8-3.52.5-7.02.33-10.5-.5-11.52 2.18-22.02 6.68-31.5 13.5-8.68 3.01-17.34 6.01-26 9-5.5 3.92-11.16 7.58-17 11a74.784 74.784 0 0 1-5 6.5c-5.15-.01-9.31 1.99-12.5 6-.67 5.27-.17 10.43 1.5 15.5-.87 4.54-3.54 6.2-8 5-4.56-4.28-7.73-9.45-9.5-15.5-2.82-3.57-6.48-5.57-11-6-4.58.87-8.74 2.71-12.5 5.5-4.25.2-8.42.7-12.5 1.5 1.81 5.73 2.48 11.73 2 18-.36 4.07-2.53 6.41-6.5 7-7.47-1.3-11.64-5.64-12.5-13-.52-1.02-1.35-1.68-2.5-2-3.82.7-7.49 1.87-11 3.5-6.05 1.95-9.55-.21-10.5-6.5-.9-1.2-2.07-2.03-3.5-2.5a98.176 98.176 0 0 1-31-9c-10.647-1.81-21.314-1.81-32 0-3.804 2.3-7.47 4.8-11 7.5-2.667-2-4-4.67-4-8-3.104 1.36-6.104 1.2-9-.5a89.802 89.802 0 0 1-12-13c-6.709-.22-13.042-1.72-19-4.5-1 .17-2 .33-3 .5 4.077 3.99 6.077 8.82 6 14.5-2.948-.28-5.781.06-8.5 1l-1 11c-2.914 1.25-4.747 3.41-5.5 6.5 4.591 4.8 10.258 7.8 17 9 2.597 3.09 3.431 6.59 2.5 10.5-5.313 7.65-12.146 13.48-20.5 17.5-4.293 1.2-7.793.03-10.5-3.5-1.229-8.59-.395-16.93 2.5-25a3.595 3.595 0 0 0-1-1.5 46.1 46.1 0 0 1-12-2c-1.304-.8-1.971-1.97-2-3.5 1.761-3.5 2.261-7.16 1.5-11-4.283-1.23-8.45-2.73-12.5-4.5 1.851-.84 3.684-1.67 5.5-2.5-.299-7-3.299-12.67-9-17-.8-7.77-4.3-13.94-10.5-18.5a401.112 401.112 0 0 1-22-5 187.965 187.965 0 0 1-27-17 328.395 328.395 0 0 1-22-21c-4.38-4.05-9.046-7.71-14-11a155.844 155.844 0 0 0-21-21c-2.53-1.42-5.197-1.75-8-1a60.043 60.043 0 0 0-14.5 7.5c-.232-3.24-1.732-5.74-4.5-7.5-12.378-.38-24.711.29-37 2-2.922.42-5.589 1.42-8 3 2.11 2.53 2.61 5.03 1.5 7.5-5.716.1-10.882 1.77-15.5 5-3.819-1.45-7.485-1.12-11 1 1.96-4.42 5.626-7.59 11-9.5-.641-2.13-1.974-3.63-4-4.5a63.996 63.996 0 0 0-7 6.5c-1.612.72-3.112.55-4.5-.5-.484-2.41-.15-4.75 1-7a27.033 27.033 0 0 0 5.5-6.5 205.866 205.866 0 0 0-17.5-16.5c-3.028-6.034-7.195-11.201-12.5-15.5a190.91 190.91 0 0 1-13-9.5 98.244 98.244 0 0 1-12 5.5c-2.142 4.903-5.809 6.903-11 6-1.161-2.721-.494-5.054 2-7 7.073-2.719 12.739-7.386 17-14-4.065-5.456-6.731-11.456-8-18-1.333-.667-2.667-.667-4 0-3.205 3.529-5.872 3.195-8-1a59.19 59.19 0 0 0 7.5-10.5 73.74 73.74 0 0 0 0-12c5.867-4.529 10.2-10.195 13-17a90.479 90.479 0 0 0 15-17 34.041 34.041 0 0 1 7.5-1.5 268.525 268.525 0 0 0 8.5-12.5c.512-5.781-.154-11.448-2-17-6.217-4.484-5.884-8.484 1-12 2.776-3.718 3.943-7.885 3.5-12.5a149.759 149.759 0 0 0-6.5-34.5l-1-15a78.034 78.034 0 0 1-4-14 11.532 11.532 0 0 0-3.5-4.5 272.48 272.48 0 0 0-20-9.5c-1.529.029-2.696.696-3.5 2L568.5 783c-6.667 4.308-11.334 2.808-14-4.5 3.473-6.986 8.306-12.986 14.5-18a22.573 22.573 0 0 0 4-8 370.009 370.009 0 0 1-2.5-31.5c-.282-11.034 1.885-21.534 6.5-31.5 6.039-5.405 10.039-12.072 12-20a81.789 81.789 0 0 0 5-26 135.1 135.1 0 0 0 10-25 971.183 971.183 0 0 1 28-52 249.034 249.034 0 0 0 4-15c3.408-4.75 4.408-10.084 3-16a117.995 117.995 0 0 1-4.5-19.5c1.371-17.042 10.371-27.709 27-32a301.798 301.798 0 0 1 18-4l5-3a634.493 634.493 0 0 0 27.5-32.5 1914.358 1914.358 0 0 0 52.5-51.5 129.21 129.21 0 0 0 15.5-10.5 348.254 348.254 0 0 0 8.5-24 32.448 32.448 0 0 0 6-2.5c-1.825-1.466-2.325-3.299-1.5-5.5a30.423 30.423 0 0 1 4.5-8 3.647 3.647 0 0 1 1.5 1 8.43 8.43 0 0 0 .5-4 11.988 11.988 0 0 0-6 1c-1.21-4.953.79-6.786 6-5.5 2.107 1.264 3.107 3.097 3 5.5 11.38-2.944 22.713-2.444 34 1.5 3.333.667 6.667.667 10 0a308.447 308.447 0 0 1 51-15 76.684 76.684 0 0 0 13-5 263.515 263.515 0 0 1 17-3 204.46 204.46 0 0 0 14-8.5 22.77 22.77 0 0 0 5.5 2 112.102 112.102 0 0 1 34.5-1c3.084-.131 5.75-1.131 8-3z"/><path style="opacity:1" fill="#292f38" d="M803.5 345.5c2.466-1.134 5.133-1.301 8-.5-2.546 1.812-5.212 1.978-8 .5z"/><path style="opacity:1" fill="#162836" d="M992.5 359.5c5.88-.452 11.55.382 17 2.5a102.895 102.895 0 0 0 15 19c5.15 2.905 10.48 3.238 16 1a127.88 127.88 0 0 1 21-17c3.67-.667 7.33-.667 11 0 1.66 2.507 2.49 5.341 2.5 8.5a968.004 968.004 0 0 0 40.5 33.5 229.059 229.059 0 0 0 26 12c35.07-4.902 65.74 4.431 92 28 9.71 4.52 18.38 10.52 26 18 24.34 24.333 44.84 51.499 61.5 81.5.67 1.667.67 3.333 0 5-11.46 24.985-4.29 41.818 21.5 50.5 4.33 3.803 6.16 8.636 5.5 14.5a420.412 420.412 0 0 0 10 32c11.45 45.976 13.12 92.309 5 139a439.998 439.998 0 0 0-10 40 85.49 85.49 0 0 1-7 16 293.02 293.02 0 0 1-8 26 1124.407 1124.407 0 0 1-36 69 204.155 204.155 0 0 0-16 22c-8.75 9.91-17.25 19.91-25.5 30a764.884 764.884 0 0 1-97 66.5c-8.04 2.52-15.7 5.85-23 10-5.66-.07-11.33-.07-17 0a215.59 215.59 0 0 0-34 10c-5.58.81-11.08.64-16.5-.5a69.302 69.302 0 0 1-2-14c-3.01-4.4-6.67-5.07-11-2-1.34 3.53-1.84 7.19-1.5 11-2.9 1.04-5.74 2.37-8.5 4-5.11-2.77-9.27-6.61-12.5-11.5-.95-.48-1.95-.65-3-.5.38 3.12-.79 5.45-3.5 7-2.23-1.2-4.4-2.53-6.5-4-2.9.73-4.57 2.57-5 5.5-.95.48-1.95.65-3 .5.16-2.03 0-4.03-.5-6-.84-1.12-2.01-1.79-3.5-2-3.3 1.61-6.64 3.28-10 5-4.667-1.17-9.333-2.33-14-3.5a20.121 20.121 0 0 0-9.5.5 50.977 50.977 0 0 1-6.5-2 64.287 64.287 0 0 1-8.5 5 96.985 96.985 0 0 0-19-4c-3.595 1.7-7.429 2.7-11.5 3-3.948-.1-7.448-1.44-10.5-4-1.52 1.2-2.687 2.7-3.5 4.5-1.5.17-3 .33-4.5.5-2.937-.19-5.437-1.19-7.5-3-5.307.69-10.641.53-16-.5-32.469-10.4-62.136-25.73-89-46-11.887-12.27-25.221-22.601-40-31a806.627 806.627 0 0 0-25-22.5 473.253 473.253 0 0 1-53.5-77c-17.716-35.868-29.716-73.534-36-113a2426.315 2426.315 0 0 0-3.5-61.5 637.243 637.243 0 0 0 2.5-45.5 453.045 453.045 0 0 1 14-38 451.187 451.187 0 0 0 27-43 45.255 45.255 0 0 1 8.5-7.5 582.868 582.868 0 0 0 29-14c10.975-8.448 16.808-19.615 17.5-33.5a420.29 420.29 0 0 0 0-41c-2.057-5.515-2.724-11.182-2-17l3.5-3.5a75.745 75.745 0 0 1 26 2c10.667.667 21.333.667 32 0 7.424-4.478 15.424-6.478 24-6l9.5 2.5a31.445 31.445 0 0 0 8.5-3.5 42.479 42.479 0 0 1 13 0c10.227 4.561 17.394 12.061 21.5 22.5 4.698 5.401 10.364 9.068 17 11 4.735-.099 9.069-1.433 13-4a360.65 360.65 0 0 0 10.5-38 8.43 8.43 0 0 0-4 .5 12.14 12.14 0 0 1-3.5 4.5 237.974 237.974 0 0 1-7.5 33.5c-4.625.026-8.625-1.64-12-5a312.238 312.238 0 0 0-6.5-13.5c-1.734-3.517-2.401-7.184-2-11a9.454 9.454 0 0 1 1.5-2.5c8.276-.658 11.443-5.158 9.5-13.5a429.204 429.204 0 0 1 12-25c2.481-3.814 5.981-5.981 10.5-6.5l9.5-9.5a528.988 528.988 0 0 1 11.5-23.5c1-.667 2-.667 3 0a45.223 45.223 0 0 0 7 4.5 10.258 10.258 0 0 0 4-1.5 173.581 173.581 0 0 0 20-24 36.16 36.16 0 0 1 7-4c4.601-.149 8.934-.982 13-2.5z"/><path style="opacity:1" fill="#cb744f" d="M994.5 539.5c1.89-.203 3.39.463 4.5 2a19.948 19.948 0 0 1 2.5 9c41.13-5.202 66.96 12.131 77.5 52 4.77 26.797 1.44 52.463-10 77-18.13 31.821-45.63 47.155-82.5 46 .331 49.653 11.497 96.653 33.5 141 37.51 64.071 92.68 88.238 165.5 72.5 15.62-4.974 29.95-12.307 43-22 9.33-8 18.67-16 28-24 8.89-1.355 11.39 2.145 7.5 10.5-42.57 47.698-95.07 64.532-157.5 50.5-52.19-17.524-89.03-51.69-110.5-102.5-18.633-45.835-26.966-93.502-25-143 1.691-3.713 4.525-4.879 8.5-3.5 1.805 2.403 4.138 4.07 7 5 35.97 1.09 60.8-15.076 74.5-48.5 7.41-20.708 8.41-41.708 3-63-12.08-33.205-35.08-44.538-69-34a68378.219 68378.219 0 0 0-60 294c-.833 2.167-2.333 3.667-4.5 4.5-3 .667-6 .667-9 0-2.787-2.167-3.62-5.001-2.5-8.5 19.677-94.083 39.344-188.083 59-282-5.918 2.917-10.085 7.417-12.5 13.5-11.808 6.287-16.975 2.787-15.5-10.5 3.57-6.536 8.737-11.369 15.5-14.5a129.217 129.217 0 0 1 20-8 41.982 41.982 0 0 1 9-13.5z"/><path style="opacity:1" fill="#cb744f" d="M1157.5 542.5c4.71-.619 7.37 1.381 8 6 36.24-.251 61.07 16.416 74.5 50 7.43 28.954 5.43 57.287-6 85-18.31 37.426-48.48 56.426-90.5 57a75.607 75.607 0 0 1-17.5-2l-1.5 1a4387.29 4387.29 0 0 0-24.5 118c-1.86 5.678-5.69 7.845-11.5 6.5-1.94-1.722-2.94-3.889-3-6.5a3414.983 3414.983 0 0 1 25-120.5c-.09-1.107-.42-2.107-1-3-9.63-2.562-18.13-7.062-25.5-13.5-1.11-6.233 1.56-9.566 8-10a97.24 97.24 0 0 1 21 7c.95-.405 1.61-1.072 2-2a19891.575 19891.575 0 0 1 31.5-150c-9.3 2.124-16.13 7.458-20.5 16-3.91 4.153-8.24 4.819-13 2a12.44 12.44 0 0 1 0-7c8.83-15.316 22-24.65 39.5-28 1.34-2.337 3.01-4.337 5-6zM864.5 547.5c32.495-1.176 52.162 14.157 59 46-.049 3.604-1.716 6.104-5 7.5a12.494 12.494 0 0 1-7 0 82.796 82.796 0 0 0-11.5-26.5c-12.284-13.317-26.784-16.484-43.5-9.5-7.567 5.249-12.401 12.416-14.5 21.5-1.756 16.365-.089 32.365 5 48a919.046 919.046 0 0 0 33 84 241.542 241.542 0 0 1 13 49c3.352 27.261-2.981 51.927-19 74-16.512 18.289-37.178 26.623-62 25-28.053.631-51.387-9.369-70-30-7.031-10.766-10.198-22.599-9.5-35.5-.062-20.819 6.771-38.985 20.5-54.5a180.42 180.42 0 0 1 16.5-15.5c8.92-2.085 11.753 1.082 8.5 9.5-14.968 11.607-24.635 26.607-29 45-5.393 32.402 7.441 53.569 38.5 63.5 21.274 6.36 41.607 4.36 61-6 23.538-19.276 33.038-44.109 28.5-74.5a237.382 237.382 0 0 0-11-41 5137.243 5137.243 0 0 1-30-75l-8-26c-6.354-23.469-2.687-45.135 11-65 7.074-7.45 15.574-12.117 25.5-14z"/><path style="opacity:1" fill="#172836" d="M1161.5 562.5c37.17 1.658 60 20.658 68.5 57 4.29 32.698-4.87 60.864-27.5 84.5-21.37 18.345-46.04 24.845-74 19.5a40383.016 40383.016 0 0 1 33-161z"/></svg>